%TF.GenerationSoftware,KiCad,Pcbnew,(5.1.10)-1*%
%TF.CreationDate,2022-03-07T13:42:18+08:00*%
%TF.ProjectId,MAX7000CPU-Gen2_5,4d415837-3030-4304-9350-552d47656e32,rev?*%
%TF.SameCoordinates,Original*%
%TF.FileFunction,Soldermask,Top*%
%TF.FilePolarity,Negative*%
%FSLAX46Y46*%
G04 Gerber Fmt 4.6, Leading zero omitted, Abs format (unit mm)*
G04 Created by KiCad (PCBNEW (5.1.10)-1) date 2022-03-07 13:42:18*
%MOMM*%
%LPD*%
G01*
G04 APERTURE LIST*
%ADD10O,1.700000X1.700000*%
%ADD11R,1.700000X1.700000*%
%ADD12C,1.500000*%
%ADD13O,1.600000X1.600000*%
%ADD14R,1.600000X1.600000*%
%ADD15C,1.422400*%
%ADD16R,1.422400X1.422400*%
%ADD17C,2.000000*%
%ADD18O,2.000000X4.000000*%
%ADD19C,1.600000*%
%ADD20O,3.500000X2.000000*%
G04 APERTURE END LIST*
%TO.C,D3*%
G36*
G01*
X-84950001Y-85950000D02*
X-84049999Y-85950000D01*
G75*
G02*
X-83800000Y-86199999I0J-249999D01*
G01*
X-83800000Y-86850001D01*
G75*
G02*
X-84049999Y-87100000I-249999J0D01*
G01*
X-84950001Y-87100000D01*
G75*
G02*
X-85200000Y-86850001I0J249999D01*
G01*
X-85200000Y-86199999D01*
G75*
G02*
X-84950001Y-85950000I249999J0D01*
G01*
G37*
G36*
G01*
X-84950001Y-83900000D02*
X-84049999Y-83900000D01*
G75*
G02*
X-83800000Y-84149999I0J-249999D01*
G01*
X-83800000Y-84800001D01*
G75*
G02*
X-84049999Y-85050000I-249999J0D01*
G01*
X-84950001Y-85050000D01*
G75*
G02*
X-85200000Y-84800001I0J249999D01*
G01*
X-85200000Y-84149999D01*
G75*
G02*
X-84950001Y-83900000I249999J0D01*
G01*
G37*
%TD*%
%TO.C,D2*%
G36*
G01*
X-81450001Y-85950000D02*
X-80549999Y-85950000D01*
G75*
G02*
X-80300000Y-86199999I0J-249999D01*
G01*
X-80300000Y-86850001D01*
G75*
G02*
X-80549999Y-87100000I-249999J0D01*
G01*
X-81450001Y-87100000D01*
G75*
G02*
X-81700000Y-86850001I0J249999D01*
G01*
X-81700000Y-86199999D01*
G75*
G02*
X-81450001Y-85950000I249999J0D01*
G01*
G37*
G36*
G01*
X-81450001Y-83900000D02*
X-80549999Y-83900000D01*
G75*
G02*
X-80300000Y-84149999I0J-249999D01*
G01*
X-80300000Y-84800001D01*
G75*
G02*
X-80549999Y-85050000I-249999J0D01*
G01*
X-81450001Y-85050000D01*
G75*
G02*
X-81700000Y-84800001I0J249999D01*
G01*
X-81700000Y-84149999D01*
G75*
G02*
X-81450001Y-83900000I249999J0D01*
G01*
G37*
%TD*%
%TO.C,D1*%
G36*
G01*
X-77950001Y-85950000D02*
X-77049999Y-85950000D01*
G75*
G02*
X-76800000Y-86199999I0J-249999D01*
G01*
X-76800000Y-86850001D01*
G75*
G02*
X-77049999Y-87100000I-249999J0D01*
G01*
X-77950001Y-87100000D01*
G75*
G02*
X-78200000Y-86850001I0J249999D01*
G01*
X-78200000Y-86199999D01*
G75*
G02*
X-77950001Y-85950000I249999J0D01*
G01*
G37*
G36*
G01*
X-77950001Y-83900000D02*
X-77049999Y-83900000D01*
G75*
G02*
X-76800000Y-84149999I0J-249999D01*
G01*
X-76800000Y-84800001D01*
G75*
G02*
X-77049999Y-85050000I-249999J0D01*
G01*
X-77950001Y-85050000D01*
G75*
G02*
X-78200000Y-84800001I0J249999D01*
G01*
X-78200000Y-84149999D01*
G75*
G02*
X-77950001Y-83900000I249999J0D01*
G01*
G37*
%TD*%
D10*
%TO.C,J8*%
X-71900000Y-191500000D03*
X-74440000Y-191500000D03*
X-76980000Y-191500000D03*
X-79520000Y-191500000D03*
X-82060000Y-191500000D03*
X-84600000Y-191500000D03*
X-87140000Y-191500000D03*
X-89680000Y-191500000D03*
X-92220000Y-191500000D03*
X-94760000Y-191500000D03*
X-97300000Y-191500000D03*
X-99840000Y-191500000D03*
X-102380000Y-191500000D03*
X-104920000Y-191500000D03*
X-107460000Y-191500000D03*
D11*
X-110000000Y-191500000D03*
%TD*%
D10*
%TO.C,J7*%
X-71900000Y-196000000D03*
X-74440000Y-196000000D03*
X-76980000Y-196000000D03*
X-79520000Y-196000000D03*
X-82060000Y-196000000D03*
X-84600000Y-196000000D03*
X-87140000Y-196000000D03*
X-89680000Y-196000000D03*
X-92220000Y-196000000D03*
X-94760000Y-196000000D03*
X-97300000Y-196000000D03*
X-99840000Y-196000000D03*
X-102380000Y-196000000D03*
X-104920000Y-196000000D03*
X-107460000Y-196000000D03*
D11*
X-110000000Y-196000000D03*
%TD*%
D10*
%TO.C,J6*%
X-39880000Y-195500000D03*
X-42420000Y-195500000D03*
X-44960000Y-195500000D03*
D11*
X-47500000Y-195500000D03*
%TD*%
D10*
%TO.C,J4*%
X-56880000Y-195500000D03*
X-59420000Y-195500000D03*
X-61960000Y-195500000D03*
D11*
X-64500000Y-195500000D03*
%TD*%
D10*
%TO.C,J3*%
X-75900000Y-159000000D03*
X-78440000Y-159000000D03*
X-80980000Y-159000000D03*
X-83520000Y-159000000D03*
X-86060000Y-159000000D03*
X-88600000Y-159000000D03*
X-91140000Y-159000000D03*
X-93680000Y-159000000D03*
X-96220000Y-159000000D03*
X-98760000Y-159000000D03*
X-101300000Y-159000000D03*
X-103840000Y-159000000D03*
X-106380000Y-159000000D03*
X-108920000Y-159000000D03*
X-111460000Y-159000000D03*
D11*
X-114000000Y-159000000D03*
%TD*%
D10*
%TO.C,J2*%
X-29400000Y-159000000D03*
X-31940000Y-159000000D03*
X-34480000Y-159000000D03*
X-37020000Y-159000000D03*
X-39560000Y-159000000D03*
X-42100000Y-159000000D03*
X-44640000Y-159000000D03*
X-47180000Y-159000000D03*
X-49720000Y-159000000D03*
X-52260000Y-159000000D03*
X-54800000Y-159000000D03*
X-57340000Y-159000000D03*
X-59880000Y-159000000D03*
X-62420000Y-159000000D03*
X-64960000Y-159000000D03*
D11*
X-67500000Y-159000000D03*
%TD*%
D12*
%TO.C,Y1*%
X-114620000Y-76000000D03*
X-119500000Y-76000000D03*
%TD*%
D13*
%TO.C,U55*%
X-150250000Y-93880000D03*
X-132470000Y-101500000D03*
X-147710000Y-93880000D03*
X-135010000Y-101500000D03*
X-145170000Y-93880000D03*
X-137550000Y-101500000D03*
X-142630000Y-93880000D03*
X-140090000Y-101500000D03*
X-140090000Y-93880000D03*
X-142630000Y-101500000D03*
X-137550000Y-93880000D03*
X-145170000Y-101500000D03*
X-135010000Y-93880000D03*
X-147710000Y-101500000D03*
X-132470000Y-93880000D03*
D14*
X-150250000Y-101500000D03*
%TD*%
D13*
%TO.C,U54*%
X-164750000Y-58750000D03*
X-141890000Y-66370000D03*
X-162210000Y-58750000D03*
X-144430000Y-66370000D03*
X-159670000Y-58750000D03*
X-146970000Y-66370000D03*
X-157130000Y-58750000D03*
X-149510000Y-66370000D03*
X-154590000Y-58750000D03*
X-152050000Y-66370000D03*
X-152050000Y-58750000D03*
X-154590000Y-66370000D03*
X-149510000Y-58750000D03*
X-157130000Y-66370000D03*
X-146970000Y-58750000D03*
X-159670000Y-66370000D03*
X-144430000Y-58750000D03*
X-162210000Y-66370000D03*
X-141890000Y-58750000D03*
D14*
X-164750000Y-66370000D03*
%TD*%
D13*
%TO.C,U53*%
X-173000000Y-93880000D03*
X-155220000Y-101500000D03*
X-170460000Y-93880000D03*
X-157760000Y-101500000D03*
X-167920000Y-93880000D03*
X-160300000Y-101500000D03*
X-165380000Y-93880000D03*
X-162840000Y-101500000D03*
X-162840000Y-93880000D03*
X-165380000Y-101500000D03*
X-160300000Y-93880000D03*
X-167920000Y-101500000D03*
X-157760000Y-93880000D03*
X-170460000Y-101500000D03*
X-155220000Y-93880000D03*
D14*
X-173000000Y-101500000D03*
%TD*%
D13*
%TO.C,U52*%
X-151250000Y-70380000D03*
X-133470000Y-78000000D03*
X-148710000Y-70380000D03*
X-136010000Y-78000000D03*
X-146170000Y-70380000D03*
X-138550000Y-78000000D03*
X-143630000Y-70380000D03*
X-141090000Y-78000000D03*
X-141090000Y-70380000D03*
X-143630000Y-78000000D03*
X-138550000Y-70380000D03*
X-146170000Y-78000000D03*
X-136010000Y-70380000D03*
X-148710000Y-78000000D03*
X-133470000Y-70380000D03*
D14*
X-151250000Y-78000000D03*
%TD*%
D13*
%TO.C,U51*%
X-164500000Y-82380000D03*
X-141640000Y-90000000D03*
X-161960000Y-82380000D03*
X-144180000Y-90000000D03*
X-159420000Y-82380000D03*
X-146720000Y-90000000D03*
X-156880000Y-82380000D03*
X-149260000Y-90000000D03*
X-154340000Y-82380000D03*
X-151800000Y-90000000D03*
X-151800000Y-82380000D03*
X-154340000Y-90000000D03*
X-149260000Y-82380000D03*
X-156880000Y-90000000D03*
X-146720000Y-82380000D03*
X-159420000Y-90000000D03*
X-144180000Y-82380000D03*
X-161960000Y-90000000D03*
X-141640000Y-82380000D03*
D14*
X-164500000Y-90000000D03*
%TD*%
D13*
%TO.C,U50*%
X-173750000Y-70380000D03*
X-155970000Y-78000000D03*
X-171210000Y-70380000D03*
X-158510000Y-78000000D03*
X-168670000Y-70380000D03*
X-161050000Y-78000000D03*
X-166130000Y-70380000D03*
X-163590000Y-78000000D03*
X-163590000Y-70380000D03*
X-166130000Y-78000000D03*
X-161050000Y-70380000D03*
X-168670000Y-78000000D03*
X-158510000Y-70380000D03*
X-171210000Y-78000000D03*
X-155970000Y-70380000D03*
D14*
X-173750000Y-78000000D03*
%TD*%
D13*
%TO.C,U49*%
X-48600000Y-132880000D03*
X-25740000Y-140500000D03*
X-46060000Y-132880000D03*
X-28280000Y-140500000D03*
X-43520000Y-132880000D03*
X-30820000Y-140500000D03*
X-40980000Y-132880000D03*
X-33360000Y-140500000D03*
X-38440000Y-132880000D03*
X-35900000Y-140500000D03*
X-35900000Y-132880000D03*
X-38440000Y-140500000D03*
X-33360000Y-132880000D03*
X-40980000Y-140500000D03*
X-30820000Y-132880000D03*
X-43520000Y-140500000D03*
X-28280000Y-132880000D03*
X-46060000Y-140500000D03*
X-25740000Y-132880000D03*
D14*
X-48600000Y-140500000D03*
%TD*%
D13*
%TO.C,U48*%
X-80800000Y-132880000D03*
X-57940000Y-140500000D03*
X-78260000Y-132880000D03*
X-60480000Y-140500000D03*
X-75720000Y-132880000D03*
X-63020000Y-140500000D03*
X-73180000Y-132880000D03*
X-65560000Y-140500000D03*
X-70640000Y-132880000D03*
X-68100000Y-140500000D03*
X-68100000Y-132880000D03*
X-70640000Y-140500000D03*
X-65560000Y-132880000D03*
X-73180000Y-140500000D03*
X-63020000Y-132880000D03*
X-75720000Y-140500000D03*
X-60480000Y-132880000D03*
X-78260000Y-140500000D03*
X-57940000Y-132880000D03*
D14*
X-80800000Y-140500000D03*
%TD*%
D13*
%TO.C,U47*%
X-58500000Y-89760000D03*
X-25480000Y-105000000D03*
X-55960000Y-89760000D03*
X-28020000Y-105000000D03*
X-53420000Y-89760000D03*
X-30560000Y-105000000D03*
X-50880000Y-89760000D03*
X-33100000Y-105000000D03*
X-48340000Y-89760000D03*
X-35640000Y-105000000D03*
X-45800000Y-89760000D03*
X-38180000Y-105000000D03*
X-43260000Y-89760000D03*
X-40720000Y-105000000D03*
X-40720000Y-89760000D03*
X-43260000Y-105000000D03*
X-38180000Y-89760000D03*
X-45800000Y-105000000D03*
X-35640000Y-89760000D03*
X-48340000Y-105000000D03*
X-33100000Y-89760000D03*
X-50880000Y-105000000D03*
X-30560000Y-89760000D03*
X-53420000Y-105000000D03*
X-28020000Y-89760000D03*
X-55960000Y-105000000D03*
X-25480000Y-89760000D03*
D14*
X-58500000Y-105000000D03*
%TD*%
D13*
%TO.C,U46*%
X-58500000Y-111260000D03*
X-25480000Y-126500000D03*
X-55960000Y-111260000D03*
X-28020000Y-126500000D03*
X-53420000Y-111260000D03*
X-30560000Y-126500000D03*
X-50880000Y-111260000D03*
X-33100000Y-126500000D03*
X-48340000Y-111260000D03*
X-35640000Y-126500000D03*
X-45800000Y-111260000D03*
X-38180000Y-126500000D03*
X-43260000Y-111260000D03*
X-40720000Y-126500000D03*
X-40720000Y-111260000D03*
X-43260000Y-126500000D03*
X-38180000Y-111260000D03*
X-45800000Y-126500000D03*
X-35640000Y-111260000D03*
X-48340000Y-126500000D03*
X-33100000Y-111260000D03*
X-50880000Y-126500000D03*
X-30560000Y-111260000D03*
X-53420000Y-126500000D03*
X-28020000Y-111260000D03*
X-55960000Y-126500000D03*
X-25480000Y-111260000D03*
D14*
X-58500000Y-126500000D03*
%TD*%
D15*
%TO.C,U45*%
X-91760000Y-96080000D03*
X-91760000Y-98620000D03*
X-91760000Y-101160000D03*
X-91760000Y-103700000D03*
X-91760000Y-106240000D03*
X-91760000Y-108780000D03*
X-91760000Y-111320000D03*
X-91760000Y-113860000D03*
X-91760000Y-116400000D03*
X-91760000Y-118940000D03*
X-94300000Y-96080000D03*
X-94300000Y-98620000D03*
X-94300000Y-101160000D03*
X-94300000Y-103700000D03*
X-94300000Y-106240000D03*
X-94300000Y-108780000D03*
X-94300000Y-111320000D03*
X-94300000Y-113860000D03*
X-94300000Y-116400000D03*
X-94300000Y-118940000D03*
X-94300000Y-121480000D03*
X-96840000Y-121480000D03*
X-99380000Y-121480000D03*
X-101920000Y-121480000D03*
X-104460000Y-121480000D03*
X-107000000Y-121480000D03*
X-109540000Y-121480000D03*
X-112080000Y-121480000D03*
X-114620000Y-121480000D03*
X-117160000Y-121480000D03*
X-119700000Y-121480000D03*
X-96840000Y-118940000D03*
X-99380000Y-118940000D03*
X-101920000Y-118940000D03*
X-104460000Y-118940000D03*
X-107000000Y-118940000D03*
X-109540000Y-118940000D03*
X-112080000Y-118940000D03*
X-114620000Y-118940000D03*
X-117160000Y-118940000D03*
X-119700000Y-118940000D03*
X-122240000Y-118940000D03*
X-122240000Y-116400000D03*
X-122240000Y-113860000D03*
X-122240000Y-111320000D03*
X-122240000Y-108780000D03*
X-122240000Y-106240000D03*
X-122240000Y-103700000D03*
X-122240000Y-101160000D03*
X-122240000Y-98620000D03*
X-122240000Y-96080000D03*
X-122240000Y-93540000D03*
X-119700000Y-116400000D03*
X-119700000Y-113860000D03*
X-119700000Y-111320000D03*
X-119700000Y-108780000D03*
X-119700000Y-106240000D03*
X-119700000Y-103700000D03*
X-119700000Y-101160000D03*
X-119700000Y-98620000D03*
X-119700000Y-96080000D03*
X-119700000Y-93540000D03*
X-94300000Y-91000000D03*
X-96840000Y-91000000D03*
X-99380000Y-91000000D03*
X-101920000Y-91000000D03*
X-104460000Y-91000000D03*
X-119700000Y-91000000D03*
X-117160000Y-91000000D03*
X-114620000Y-91000000D03*
X-112080000Y-91000000D03*
X-109540000Y-91000000D03*
D16*
X-107000000Y-91000000D03*
D15*
X-91760000Y-93540000D03*
X-94300000Y-93540000D03*
X-96840000Y-93540000D03*
X-99380000Y-93540000D03*
X-101920000Y-93540000D03*
X-104460000Y-93540000D03*
X-117160000Y-93540000D03*
X-114620000Y-93540000D03*
X-112080000Y-93540000D03*
X-109540000Y-93540000D03*
X-107000000Y-93540000D03*
%TD*%
D13*
%TO.C,U44*%
X-38380000Y-45350000D03*
X-46000000Y-68210000D03*
X-38380000Y-47890000D03*
X-46000000Y-65670000D03*
X-38380000Y-50430000D03*
X-46000000Y-63130000D03*
X-38380000Y-52970000D03*
X-46000000Y-60590000D03*
X-38380000Y-55510000D03*
X-46000000Y-58050000D03*
X-38380000Y-58050000D03*
X-46000000Y-55510000D03*
X-38380000Y-60590000D03*
X-46000000Y-52970000D03*
X-38380000Y-63130000D03*
X-46000000Y-50430000D03*
X-38380000Y-65670000D03*
X-46000000Y-47890000D03*
X-38380000Y-68210000D03*
D14*
X-46000000Y-45350000D03*
%TD*%
D13*
%TO.C,U43*%
X-38380000Y-17600000D03*
X-46000000Y-40460000D03*
X-38380000Y-20140000D03*
X-46000000Y-37920000D03*
X-38380000Y-22680000D03*
X-46000000Y-35380000D03*
X-38380000Y-25220000D03*
X-46000000Y-32840000D03*
X-38380000Y-27760000D03*
X-46000000Y-30300000D03*
X-38380000Y-30300000D03*
X-46000000Y-27760000D03*
X-38380000Y-32840000D03*
X-46000000Y-25220000D03*
X-38380000Y-35380000D03*
X-46000000Y-22680000D03*
X-38380000Y-37920000D03*
X-46000000Y-20140000D03*
X-38380000Y-40460000D03*
D14*
X-46000000Y-17600000D03*
%TD*%
D13*
%TO.C,U42*%
X-51130000Y-45350000D03*
X-58750000Y-68210000D03*
X-51130000Y-47890000D03*
X-58750000Y-65670000D03*
X-51130000Y-50430000D03*
X-58750000Y-63130000D03*
X-51130000Y-52970000D03*
X-58750000Y-60590000D03*
X-51130000Y-55510000D03*
X-58750000Y-58050000D03*
X-51130000Y-58050000D03*
X-58750000Y-55510000D03*
X-51130000Y-60590000D03*
X-58750000Y-52970000D03*
X-51130000Y-63130000D03*
X-58750000Y-50430000D03*
X-51130000Y-65670000D03*
X-58750000Y-47890000D03*
X-51130000Y-68210000D03*
D14*
X-58750000Y-45350000D03*
%TD*%
D13*
%TO.C,U41*%
X-51130000Y-17600000D03*
X-58750000Y-40460000D03*
X-51130000Y-20140000D03*
X-58750000Y-37920000D03*
X-51130000Y-22680000D03*
X-58750000Y-35380000D03*
X-51130000Y-25220000D03*
X-58750000Y-32840000D03*
X-51130000Y-27760000D03*
X-58750000Y-30300000D03*
X-51130000Y-30300000D03*
X-58750000Y-27760000D03*
X-51130000Y-32840000D03*
X-58750000Y-25220000D03*
X-51130000Y-35380000D03*
X-58750000Y-22680000D03*
X-51130000Y-37920000D03*
X-58750000Y-20140000D03*
X-51130000Y-40460000D03*
D14*
X-58750000Y-17600000D03*
%TD*%
D13*
%TO.C,U40*%
X-74180000Y-103100000D03*
X-81800000Y-125960000D03*
X-74180000Y-105640000D03*
X-81800000Y-123420000D03*
X-74180000Y-108180000D03*
X-81800000Y-120880000D03*
X-74180000Y-110720000D03*
X-81800000Y-118340000D03*
X-74180000Y-113260000D03*
X-81800000Y-115800000D03*
X-74180000Y-115800000D03*
X-81800000Y-113260000D03*
X-74180000Y-118340000D03*
X-81800000Y-110720000D03*
X-74180000Y-120880000D03*
X-81800000Y-108180000D03*
X-74180000Y-123420000D03*
X-81800000Y-105640000D03*
X-74180000Y-125960000D03*
D14*
X-81800000Y-103100000D03*
%TD*%
D13*
%TO.C,U39*%
X-46000000Y-3480000D03*
X-23140000Y-11100000D03*
X-43460000Y-3480000D03*
X-25680000Y-11100000D03*
X-40920000Y-3480000D03*
X-28220000Y-11100000D03*
X-38380000Y-3480000D03*
X-30760000Y-11100000D03*
X-35840000Y-3480000D03*
X-33300000Y-11100000D03*
X-33300000Y-3480000D03*
X-35840000Y-11100000D03*
X-30760000Y-3480000D03*
X-38380000Y-11100000D03*
X-28220000Y-3480000D03*
X-40920000Y-11100000D03*
X-25680000Y-3480000D03*
X-43460000Y-11100000D03*
X-23140000Y-3480000D03*
D14*
X-46000000Y-11100000D03*
%TD*%
D13*
%TO.C,U38*%
X-46000000Y-73730000D03*
X-23140000Y-81350000D03*
X-43460000Y-73730000D03*
X-25680000Y-81350000D03*
X-40920000Y-73730000D03*
X-28220000Y-81350000D03*
X-38380000Y-73730000D03*
X-30760000Y-81350000D03*
X-35840000Y-73730000D03*
X-33300000Y-81350000D03*
X-33300000Y-73730000D03*
X-35840000Y-81350000D03*
X-30760000Y-73730000D03*
X-38380000Y-81350000D03*
X-28220000Y-73730000D03*
X-40920000Y-81350000D03*
X-25680000Y-73730000D03*
X-43460000Y-81350000D03*
X-23140000Y-73730000D03*
D14*
X-46000000Y-81350000D03*
%TD*%
D13*
%TO.C,U37*%
X-67630000Y-45350000D03*
X-75250000Y-68210000D03*
X-67630000Y-47890000D03*
X-75250000Y-65670000D03*
X-67630000Y-50430000D03*
X-75250000Y-63130000D03*
X-67630000Y-52970000D03*
X-75250000Y-60590000D03*
X-67630000Y-55510000D03*
X-75250000Y-58050000D03*
X-67630000Y-58050000D03*
X-75250000Y-55510000D03*
X-67630000Y-60590000D03*
X-75250000Y-52970000D03*
X-67630000Y-63130000D03*
X-75250000Y-50430000D03*
X-67630000Y-65670000D03*
X-75250000Y-47890000D03*
X-67630000Y-68210000D03*
D14*
X-75250000Y-45350000D03*
%TD*%
D13*
%TO.C,U36*%
X-51000000Y-145500000D03*
X-28140000Y-153120000D03*
X-48460000Y-145500000D03*
X-30680000Y-153120000D03*
X-45920000Y-145500000D03*
X-33220000Y-153120000D03*
X-43380000Y-145500000D03*
X-35760000Y-153120000D03*
X-40840000Y-145500000D03*
X-38300000Y-153120000D03*
X-38300000Y-145500000D03*
X-40840000Y-153120000D03*
X-35760000Y-145500000D03*
X-43380000Y-153120000D03*
X-33220000Y-145500000D03*
X-45920000Y-153120000D03*
X-30680000Y-145500000D03*
X-48460000Y-153120000D03*
X-28140000Y-145500000D03*
D14*
X-51000000Y-153120000D03*
%TD*%
D13*
%TO.C,U35*%
X-73500000Y-3480000D03*
X-50640000Y-11100000D03*
X-70960000Y-3480000D03*
X-53180000Y-11100000D03*
X-68420000Y-3480000D03*
X-55720000Y-11100000D03*
X-65880000Y-3480000D03*
X-58260000Y-11100000D03*
X-63340000Y-3480000D03*
X-60800000Y-11100000D03*
X-60800000Y-3480000D03*
X-63340000Y-11100000D03*
X-58260000Y-3480000D03*
X-65880000Y-11100000D03*
X-55720000Y-3480000D03*
X-68420000Y-11100000D03*
X-53180000Y-3480000D03*
X-70960000Y-11100000D03*
X-50640000Y-3480000D03*
D14*
X-73500000Y-11100000D03*
%TD*%
D13*
%TO.C,U34*%
X-73500000Y-73730000D03*
X-50640000Y-81350000D03*
X-70960000Y-73730000D03*
X-53180000Y-81350000D03*
X-68420000Y-73730000D03*
X-55720000Y-81350000D03*
X-65880000Y-73730000D03*
X-58260000Y-81350000D03*
X-63340000Y-73730000D03*
X-60800000Y-81350000D03*
X-60800000Y-73730000D03*
X-63340000Y-81350000D03*
X-58260000Y-73730000D03*
X-65880000Y-81350000D03*
X-55720000Y-73730000D03*
X-68420000Y-81350000D03*
X-53180000Y-73730000D03*
X-70960000Y-81350000D03*
X-50640000Y-73730000D03*
D14*
X-73500000Y-81350000D03*
%TD*%
D13*
%TO.C,U33*%
X-67630000Y-17600000D03*
X-75250000Y-40460000D03*
X-67630000Y-20140000D03*
X-75250000Y-37920000D03*
X-67630000Y-22680000D03*
X-75250000Y-35380000D03*
X-67630000Y-25220000D03*
X-75250000Y-32840000D03*
X-67630000Y-27760000D03*
X-75250000Y-30300000D03*
X-67630000Y-30300000D03*
X-75250000Y-27760000D03*
X-67630000Y-32840000D03*
X-75250000Y-25220000D03*
X-67630000Y-35380000D03*
X-75250000Y-22680000D03*
X-67630000Y-37920000D03*
X-75250000Y-20140000D03*
X-67630000Y-40460000D03*
D14*
X-75250000Y-17600000D03*
%TD*%
D13*
%TO.C,U32*%
X-24880000Y-45350000D03*
X-32500000Y-68210000D03*
X-24880000Y-47890000D03*
X-32500000Y-65670000D03*
X-24880000Y-50430000D03*
X-32500000Y-63130000D03*
X-24880000Y-52970000D03*
X-32500000Y-60590000D03*
X-24880000Y-55510000D03*
X-32500000Y-58050000D03*
X-24880000Y-58050000D03*
X-32500000Y-55510000D03*
X-24880000Y-60590000D03*
X-32500000Y-52970000D03*
X-24880000Y-63130000D03*
X-32500000Y-50430000D03*
X-24880000Y-65670000D03*
X-32500000Y-47890000D03*
X-24880000Y-68210000D03*
D14*
X-32500000Y-45350000D03*
%TD*%
D13*
%TO.C,U31*%
X-24880000Y-17600000D03*
X-32500000Y-40460000D03*
X-24880000Y-20140000D03*
X-32500000Y-37920000D03*
X-24880000Y-22680000D03*
X-32500000Y-35380000D03*
X-24880000Y-25220000D03*
X-32500000Y-32840000D03*
X-24880000Y-27760000D03*
X-32500000Y-30300000D03*
X-24880000Y-30300000D03*
X-32500000Y-27760000D03*
X-24880000Y-32840000D03*
X-32500000Y-25220000D03*
X-24880000Y-35380000D03*
X-32500000Y-22680000D03*
X-24880000Y-37920000D03*
X-32500000Y-20140000D03*
X-24880000Y-40460000D03*
D14*
X-32500000Y-17600000D03*
%TD*%
D13*
%TO.C,U30*%
X-136130000Y-172250000D03*
X-143750000Y-195110000D03*
X-136130000Y-174790000D03*
X-143750000Y-192570000D03*
X-136130000Y-177330000D03*
X-143750000Y-190030000D03*
X-136130000Y-179870000D03*
X-143750000Y-187490000D03*
X-136130000Y-182410000D03*
X-143750000Y-184950000D03*
X-136130000Y-184950000D03*
X-143750000Y-182410000D03*
X-136130000Y-187490000D03*
X-143750000Y-179870000D03*
X-136130000Y-190030000D03*
X-143750000Y-177330000D03*
X-136130000Y-192570000D03*
X-143750000Y-174790000D03*
X-136130000Y-195110000D03*
D14*
X-143750000Y-172250000D03*
%TD*%
D13*
%TO.C,U29*%
X-149130000Y-172250000D03*
X-156750000Y-195110000D03*
X-149130000Y-174790000D03*
X-156750000Y-192570000D03*
X-149130000Y-177330000D03*
X-156750000Y-190030000D03*
X-149130000Y-179870000D03*
X-156750000Y-187490000D03*
X-149130000Y-182410000D03*
X-156750000Y-184950000D03*
X-149130000Y-184950000D03*
X-156750000Y-182410000D03*
X-149130000Y-187490000D03*
X-156750000Y-179870000D03*
X-149130000Y-190030000D03*
X-156750000Y-177330000D03*
X-149130000Y-192570000D03*
X-156750000Y-174790000D03*
X-149130000Y-195110000D03*
D14*
X-156750000Y-172250000D03*
%TD*%
D13*
%TO.C,U28*%
X-122380000Y-172250000D03*
X-130000000Y-195110000D03*
X-122380000Y-174790000D03*
X-130000000Y-192570000D03*
X-122380000Y-177330000D03*
X-130000000Y-190030000D03*
X-122380000Y-179870000D03*
X-130000000Y-187490000D03*
X-122380000Y-182410000D03*
X-130000000Y-184950000D03*
X-122380000Y-184950000D03*
X-130000000Y-182410000D03*
X-122380000Y-187490000D03*
X-130000000Y-179870000D03*
X-122380000Y-190030000D03*
X-130000000Y-177330000D03*
X-122380000Y-192570000D03*
X-130000000Y-174790000D03*
X-122380000Y-195110000D03*
D14*
X-130000000Y-172250000D03*
%TD*%
D13*
%TO.C,U27*%
X-167380000Y-172250000D03*
X-175000000Y-195110000D03*
X-167380000Y-174790000D03*
X-175000000Y-192570000D03*
X-167380000Y-177330000D03*
X-175000000Y-190030000D03*
X-167380000Y-179870000D03*
X-175000000Y-187490000D03*
X-167380000Y-182410000D03*
X-175000000Y-184950000D03*
X-167380000Y-184950000D03*
X-175000000Y-182410000D03*
X-167380000Y-187490000D03*
X-175000000Y-179870000D03*
X-167380000Y-190030000D03*
X-175000000Y-177330000D03*
X-167380000Y-192570000D03*
X-175000000Y-174790000D03*
X-167380000Y-195110000D03*
D14*
X-175000000Y-172250000D03*
%TD*%
D13*
%TO.C,U26*%
X-169830000Y-125260000D03*
X-131730000Y-140500000D03*
X-167290000Y-125260000D03*
X-134270000Y-140500000D03*
X-164750000Y-125260000D03*
X-136810000Y-140500000D03*
X-162210000Y-125260000D03*
X-139350000Y-140500000D03*
X-159670000Y-125260000D03*
X-141890000Y-140500000D03*
X-157130000Y-125260000D03*
X-144430000Y-140500000D03*
X-154590000Y-125260000D03*
X-146970000Y-140500000D03*
X-152050000Y-125260000D03*
X-149510000Y-140500000D03*
X-149510000Y-125260000D03*
X-152050000Y-140500000D03*
X-146970000Y-125260000D03*
X-154590000Y-140500000D03*
X-144430000Y-125260000D03*
X-157130000Y-140500000D03*
X-141890000Y-125260000D03*
X-159670000Y-140500000D03*
X-139350000Y-125260000D03*
X-162210000Y-140500000D03*
X-136810000Y-125260000D03*
X-164750000Y-140500000D03*
X-134270000Y-125260000D03*
X-167290000Y-140500000D03*
X-131730000Y-125260000D03*
D14*
X-169830000Y-140500000D03*
%TD*%
D13*
%TO.C,U25*%
X-167380000Y-144750000D03*
X-175000000Y-167610000D03*
X-167380000Y-147290000D03*
X-175000000Y-165070000D03*
X-167380000Y-149830000D03*
X-175000000Y-162530000D03*
X-167380000Y-152370000D03*
X-175000000Y-159990000D03*
X-167380000Y-154910000D03*
X-175000000Y-157450000D03*
X-167380000Y-157450000D03*
X-175000000Y-154910000D03*
X-167380000Y-159990000D03*
X-175000000Y-152370000D03*
X-167380000Y-162530000D03*
X-175000000Y-149830000D03*
X-167380000Y-165070000D03*
X-175000000Y-147290000D03*
X-167380000Y-167610000D03*
D14*
X-175000000Y-144750000D03*
%TD*%
D13*
%TO.C,U24*%
X-136130000Y-144750000D03*
X-143750000Y-167610000D03*
X-136130000Y-147290000D03*
X-143750000Y-165070000D03*
X-136130000Y-149830000D03*
X-143750000Y-162530000D03*
X-136130000Y-152370000D03*
X-143750000Y-159990000D03*
X-136130000Y-154910000D03*
X-143750000Y-157450000D03*
X-136130000Y-157450000D03*
X-143750000Y-154910000D03*
X-136130000Y-159990000D03*
X-143750000Y-152370000D03*
X-136130000Y-162530000D03*
X-143750000Y-149830000D03*
X-136130000Y-165070000D03*
X-143750000Y-147290000D03*
X-136130000Y-167610000D03*
D14*
X-143750000Y-144750000D03*
%TD*%
D13*
%TO.C,U23*%
X-149230000Y-144750000D03*
X-156850000Y-167610000D03*
X-149230000Y-147290000D03*
X-156850000Y-165070000D03*
X-149230000Y-149830000D03*
X-156850000Y-162530000D03*
X-149230000Y-152370000D03*
X-156850000Y-159990000D03*
X-149230000Y-154910000D03*
X-156850000Y-157450000D03*
X-149230000Y-157450000D03*
X-156850000Y-154910000D03*
X-149230000Y-159990000D03*
X-156850000Y-152370000D03*
X-149230000Y-162530000D03*
X-156850000Y-149830000D03*
X-149230000Y-165070000D03*
X-156850000Y-147290000D03*
X-149230000Y-167610000D03*
D14*
X-156850000Y-144750000D03*
%TD*%
D13*
%TO.C,U22*%
X-122630000Y-144750000D03*
X-130250000Y-167610000D03*
X-122630000Y-147290000D03*
X-130250000Y-165070000D03*
X-122630000Y-149830000D03*
X-130250000Y-162530000D03*
X-122630000Y-152370000D03*
X-130250000Y-159990000D03*
X-122630000Y-154910000D03*
X-130250000Y-157450000D03*
X-122630000Y-157450000D03*
X-130250000Y-154910000D03*
X-122630000Y-159990000D03*
X-130250000Y-152370000D03*
X-122630000Y-162530000D03*
X-130250000Y-149830000D03*
X-122630000Y-165070000D03*
X-130250000Y-147290000D03*
X-122630000Y-167610000D03*
D14*
X-130250000Y-144750000D03*
%TD*%
D13*
%TO.C,U21*%
X-169830000Y-105260000D03*
X-131730000Y-120500000D03*
X-167290000Y-105260000D03*
X-134270000Y-120500000D03*
X-164750000Y-105260000D03*
X-136810000Y-120500000D03*
X-162210000Y-105260000D03*
X-139350000Y-120500000D03*
X-159670000Y-105260000D03*
X-141890000Y-120500000D03*
X-157130000Y-105260000D03*
X-144430000Y-120500000D03*
X-154590000Y-105260000D03*
X-146970000Y-120500000D03*
X-152050000Y-105260000D03*
X-149510000Y-120500000D03*
X-149510000Y-105260000D03*
X-152050000Y-120500000D03*
X-146970000Y-105260000D03*
X-154590000Y-120500000D03*
X-144430000Y-105260000D03*
X-157130000Y-120500000D03*
X-141890000Y-105260000D03*
X-159670000Y-120500000D03*
X-139350000Y-105260000D03*
X-162210000Y-120500000D03*
X-136810000Y-105260000D03*
X-164750000Y-120500000D03*
X-134270000Y-105260000D03*
X-167290000Y-120500000D03*
X-131730000Y-105260000D03*
D14*
X-169830000Y-120500000D03*
%TD*%
D13*
%TO.C,U20*%
X-86500000Y-174880000D03*
X-63640000Y-182500000D03*
X-83960000Y-174880000D03*
X-66180000Y-182500000D03*
X-81420000Y-174880000D03*
X-68720000Y-182500000D03*
X-78880000Y-174880000D03*
X-71260000Y-182500000D03*
X-76340000Y-174880000D03*
X-73800000Y-182500000D03*
X-73800000Y-174880000D03*
X-76340000Y-182500000D03*
X-71260000Y-174880000D03*
X-78880000Y-182500000D03*
X-68720000Y-174880000D03*
X-81420000Y-182500000D03*
X-66180000Y-174880000D03*
X-83960000Y-182500000D03*
X-63640000Y-174880000D03*
D14*
X-86500000Y-182500000D03*
%TD*%
D13*
%TO.C,U19*%
X-86500000Y-163880000D03*
X-63640000Y-171500000D03*
X-83960000Y-163880000D03*
X-66180000Y-171500000D03*
X-81420000Y-163880000D03*
X-68720000Y-171500000D03*
X-78880000Y-163880000D03*
X-71260000Y-171500000D03*
X-76340000Y-163880000D03*
X-73800000Y-171500000D03*
X-73800000Y-163880000D03*
X-76340000Y-171500000D03*
X-71260000Y-163880000D03*
X-78880000Y-171500000D03*
X-68720000Y-163880000D03*
X-81420000Y-171500000D03*
X-66180000Y-163880000D03*
X-83960000Y-171500000D03*
X-63640000Y-163880000D03*
D14*
X-86500000Y-171500000D03*
%TD*%
D13*
%TO.C,U18*%
X-114000000Y-174880000D03*
X-91140000Y-182500000D03*
X-111460000Y-174880000D03*
X-93680000Y-182500000D03*
X-108920000Y-174880000D03*
X-96220000Y-182500000D03*
X-106380000Y-174880000D03*
X-98760000Y-182500000D03*
X-103840000Y-174880000D03*
X-101300000Y-182500000D03*
X-101300000Y-174880000D03*
X-103840000Y-182500000D03*
X-98760000Y-174880000D03*
X-106380000Y-182500000D03*
X-96220000Y-174880000D03*
X-108920000Y-182500000D03*
X-93680000Y-174880000D03*
X-111460000Y-182500000D03*
X-91140000Y-174880000D03*
D14*
X-114000000Y-182500000D03*
%TD*%
D13*
%TO.C,U17*%
X-114000000Y-163880000D03*
X-91140000Y-171500000D03*
X-111460000Y-163880000D03*
X-93680000Y-171500000D03*
X-108920000Y-163880000D03*
X-96220000Y-171500000D03*
X-106380000Y-163880000D03*
X-98760000Y-171500000D03*
X-103840000Y-163880000D03*
X-101300000Y-171500000D03*
X-101300000Y-163880000D03*
X-103840000Y-171500000D03*
X-98760000Y-163880000D03*
X-106380000Y-171500000D03*
X-96220000Y-163880000D03*
X-108920000Y-171500000D03*
X-93680000Y-163880000D03*
X-111460000Y-171500000D03*
X-91140000Y-163880000D03*
D14*
X-114000000Y-171500000D03*
%TD*%
D13*
%TO.C,U16*%
X-81270000Y-89980000D03*
X-63490000Y-97600000D03*
X-78730000Y-89980000D03*
X-66030000Y-97600000D03*
X-76190000Y-89980000D03*
X-68570000Y-97600000D03*
X-73650000Y-89980000D03*
X-71110000Y-97600000D03*
X-71110000Y-89980000D03*
X-73650000Y-97600000D03*
X-68570000Y-89980000D03*
X-76190000Y-97600000D03*
X-66030000Y-89980000D03*
X-78730000Y-97600000D03*
X-63490000Y-89980000D03*
D14*
X-81270000Y-97600000D03*
%TD*%
D13*
%TO.C,U15*%
X-105000000Y-17880000D03*
X-87220000Y-25500000D03*
X-102460000Y-17880000D03*
X-89760000Y-25500000D03*
X-99920000Y-17880000D03*
X-92300000Y-25500000D03*
X-97380000Y-17880000D03*
X-94840000Y-25500000D03*
X-94840000Y-17880000D03*
X-97380000Y-25500000D03*
X-92300000Y-17880000D03*
X-99920000Y-25500000D03*
X-89760000Y-17880000D03*
X-102460000Y-25500000D03*
X-87220000Y-17880000D03*
D14*
X-105000000Y-25500000D03*
%TD*%
D13*
%TO.C,U14*%
X-119000000Y-5880000D03*
X-96140000Y-13500000D03*
X-116460000Y-5880000D03*
X-98680000Y-13500000D03*
X-113920000Y-5880000D03*
X-101220000Y-13500000D03*
X-111380000Y-5880000D03*
X-103760000Y-13500000D03*
X-108840000Y-5880000D03*
X-106300000Y-13500000D03*
X-106300000Y-5880000D03*
X-108840000Y-13500000D03*
X-103760000Y-5880000D03*
X-111380000Y-13500000D03*
X-101220000Y-5880000D03*
X-113920000Y-13500000D03*
X-98680000Y-5880000D03*
X-116460000Y-13500000D03*
X-96140000Y-5880000D03*
D14*
X-119000000Y-13500000D03*
%TD*%
D13*
%TO.C,U13*%
X-118880000Y-30000000D03*
X-126500000Y-52860000D03*
X-118880000Y-32540000D03*
X-126500000Y-50320000D03*
X-118880000Y-35080000D03*
X-126500000Y-47780000D03*
X-118880000Y-37620000D03*
X-126500000Y-45240000D03*
X-118880000Y-40160000D03*
X-126500000Y-42700000D03*
X-118880000Y-42700000D03*
X-126500000Y-40160000D03*
X-118880000Y-45240000D03*
X-126500000Y-37620000D03*
X-118880000Y-47780000D03*
X-126500000Y-35080000D03*
X-118880000Y-50320000D03*
X-126500000Y-32540000D03*
X-118880000Y-52860000D03*
D14*
X-126500000Y-30000000D03*
%TD*%
D13*
%TO.C,U12*%
X-88380000Y-30000000D03*
X-96000000Y-52860000D03*
X-88380000Y-32540000D03*
X-96000000Y-50320000D03*
X-88380000Y-35080000D03*
X-96000000Y-47780000D03*
X-88380000Y-37620000D03*
X-96000000Y-45240000D03*
X-88380000Y-40160000D03*
X-96000000Y-42700000D03*
X-88380000Y-42700000D03*
X-96000000Y-40160000D03*
X-88380000Y-45240000D03*
X-96000000Y-37620000D03*
X-88380000Y-47780000D03*
X-96000000Y-35080000D03*
X-88380000Y-50320000D03*
X-96000000Y-32540000D03*
X-88380000Y-52860000D03*
D14*
X-96000000Y-30000000D03*
%TD*%
D13*
%TO.C,U11*%
X-103880000Y-30000000D03*
X-111500000Y-52860000D03*
X-103880000Y-32540000D03*
X-111500000Y-50320000D03*
X-103880000Y-35080000D03*
X-111500000Y-47780000D03*
X-103880000Y-37620000D03*
X-111500000Y-45240000D03*
X-103880000Y-40160000D03*
X-111500000Y-42700000D03*
X-103880000Y-42700000D03*
X-111500000Y-40160000D03*
X-103880000Y-45240000D03*
X-111500000Y-37620000D03*
X-103880000Y-47780000D03*
X-111500000Y-35080000D03*
X-103880000Y-50320000D03*
X-111500000Y-32540000D03*
X-103880000Y-52860000D03*
D14*
X-111500000Y-30000000D03*
%TD*%
D13*
%TO.C,U10*%
X-127500000Y-17880000D03*
X-109720000Y-25500000D03*
X-124960000Y-17880000D03*
X-112260000Y-25500000D03*
X-122420000Y-17880000D03*
X-114800000Y-25500000D03*
X-119880000Y-17880000D03*
X-117340000Y-25500000D03*
X-117340000Y-17880000D03*
X-119880000Y-25500000D03*
X-114800000Y-17880000D03*
X-122420000Y-25500000D03*
X-112260000Y-17880000D03*
X-124960000Y-25500000D03*
X-109720000Y-17880000D03*
D14*
X-127500000Y-25500000D03*
%TD*%
D13*
%TO.C,U9*%
X-150000000Y-17880000D03*
X-132220000Y-25500000D03*
X-147460000Y-17880000D03*
X-134760000Y-25500000D03*
X-144920000Y-17880000D03*
X-137300000Y-25500000D03*
X-142380000Y-17880000D03*
X-139840000Y-25500000D03*
X-139840000Y-17880000D03*
X-142380000Y-25500000D03*
X-137300000Y-17880000D03*
X-144920000Y-25500000D03*
X-134760000Y-17880000D03*
X-147460000Y-25500000D03*
X-132220000Y-17880000D03*
D14*
X-150000000Y-25500000D03*
%TD*%
D13*
%TO.C,U8*%
X-163500000Y-5880000D03*
X-140640000Y-13500000D03*
X-160960000Y-5880000D03*
X-143180000Y-13500000D03*
X-158420000Y-5880000D03*
X-145720000Y-13500000D03*
X-155880000Y-5880000D03*
X-148260000Y-13500000D03*
X-153340000Y-5880000D03*
X-150800000Y-13500000D03*
X-150800000Y-5880000D03*
X-153340000Y-13500000D03*
X-148260000Y-5880000D03*
X-155880000Y-13500000D03*
X-145720000Y-5880000D03*
X-158420000Y-13500000D03*
X-143180000Y-5880000D03*
X-160960000Y-13500000D03*
X-140640000Y-5880000D03*
D14*
X-163500000Y-13500000D03*
%TD*%
D13*
%TO.C,U7*%
X-163880000Y-30000000D03*
X-171500000Y-52860000D03*
X-163880000Y-32540000D03*
X-171500000Y-50320000D03*
X-163880000Y-35080000D03*
X-171500000Y-47780000D03*
X-163880000Y-37620000D03*
X-171500000Y-45240000D03*
X-163880000Y-40160000D03*
X-171500000Y-42700000D03*
X-163880000Y-42700000D03*
X-171500000Y-40160000D03*
X-163880000Y-45240000D03*
X-171500000Y-37620000D03*
X-163880000Y-47780000D03*
X-171500000Y-35080000D03*
X-163880000Y-50320000D03*
X-171500000Y-32540000D03*
X-163880000Y-52860000D03*
D14*
X-171500000Y-30000000D03*
%TD*%
D13*
%TO.C,U6*%
X-133880000Y-30000000D03*
X-141500000Y-52860000D03*
X-133880000Y-32540000D03*
X-141500000Y-50320000D03*
X-133880000Y-35080000D03*
X-141500000Y-47780000D03*
X-133880000Y-37620000D03*
X-141500000Y-45240000D03*
X-133880000Y-40160000D03*
X-141500000Y-42700000D03*
X-133880000Y-42700000D03*
X-141500000Y-40160000D03*
X-133880000Y-45240000D03*
X-141500000Y-37620000D03*
X-133880000Y-47780000D03*
X-141500000Y-35080000D03*
X-133880000Y-50320000D03*
X-141500000Y-32540000D03*
X-133880000Y-52860000D03*
D14*
X-141500000Y-30000000D03*
%TD*%
D13*
%TO.C,U5*%
X-148880000Y-30000000D03*
X-156500000Y-52860000D03*
X-148880000Y-32540000D03*
X-156500000Y-50320000D03*
X-148880000Y-35080000D03*
X-156500000Y-47780000D03*
X-148880000Y-37620000D03*
X-156500000Y-45240000D03*
X-148880000Y-40160000D03*
X-156500000Y-42700000D03*
X-148880000Y-42700000D03*
X-156500000Y-40160000D03*
X-148880000Y-45240000D03*
X-156500000Y-37620000D03*
X-148880000Y-47780000D03*
X-156500000Y-35080000D03*
X-148880000Y-50320000D03*
X-156500000Y-32540000D03*
X-148880000Y-52860000D03*
D14*
X-156500000Y-30000000D03*
%TD*%
D13*
%TO.C,U4*%
X-172500000Y-17880000D03*
X-154720000Y-25500000D03*
X-169960000Y-17880000D03*
X-157260000Y-25500000D03*
X-167420000Y-17880000D03*
X-159800000Y-25500000D03*
X-164880000Y-17880000D03*
X-162340000Y-25500000D03*
X-162340000Y-17880000D03*
X-164880000Y-25500000D03*
X-159800000Y-17880000D03*
X-167420000Y-25500000D03*
X-157260000Y-17880000D03*
X-169960000Y-25500000D03*
X-154720000Y-17880000D03*
D14*
X-172500000Y-25500000D03*
%TD*%
D13*
%TO.C,U3*%
X-104000000Y-73880000D03*
X-88760000Y-81500000D03*
X-101460000Y-73880000D03*
X-91300000Y-81500000D03*
X-98920000Y-73880000D03*
X-93840000Y-81500000D03*
X-96380000Y-73880000D03*
X-96380000Y-81500000D03*
X-93840000Y-73880000D03*
X-98920000Y-81500000D03*
X-91300000Y-73880000D03*
X-101460000Y-81500000D03*
X-88760000Y-73880000D03*
D14*
X-104000000Y-81500000D03*
%TD*%
D13*
%TO.C,U2*%
X-81380000Y-61500000D03*
X-89000000Y-69120000D03*
X-81380000Y-64040000D03*
X-89000000Y-66580000D03*
X-81380000Y-66580000D03*
X-89000000Y-64040000D03*
X-81380000Y-69120000D03*
D14*
X-89000000Y-61500000D03*
%TD*%
D13*
%TO.C,U1*%
X-105100000Y-61500000D03*
X-112720000Y-69120000D03*
X-105100000Y-64040000D03*
X-112720000Y-66580000D03*
X-105100000Y-66580000D03*
X-112720000Y-64040000D03*
X-105100000Y-69120000D03*
D14*
X-112720000Y-61500000D03*
%TD*%
D17*
%TO.C,SW2*%
X-94000000Y-63000000D03*
X-94000000Y-67500000D03*
X-100500000Y-63000000D03*
X-100500000Y-67500000D03*
%TD*%
%TO.C,SW1*%
X-117670000Y-63000000D03*
X-117670000Y-67500000D03*
X-124170000Y-63000000D03*
X-124170000Y-67500000D03*
%TD*%
D18*
%TO.C,J9*%
X-24850000Y-190200000D03*
D19*
X-31300000Y-193600000D03*
X-31300000Y-186800000D03*
X-28500000Y-193600000D03*
X-28500000Y-186800000D03*
X-28500000Y-191500000D03*
D14*
X-28500000Y-188900000D03*
D20*
X-25650000Y-183350000D03*
X-25650000Y-197050000D03*
%TD*%
D10*
%TO.C,J5*%
X-22500000Y-159160000D03*
X-22500000Y-156620000D03*
X-22500000Y-154080000D03*
X-22500000Y-151540000D03*
D11*
X-22500000Y-149000000D03*
%TD*%
D10*
%TO.C,J1*%
X-24750000Y-167250000D03*
X-22210000Y-167250000D03*
X-24750000Y-169790000D03*
X-22210000Y-169790000D03*
X-24750000Y-172330000D03*
X-22210000Y-172330000D03*
X-24750000Y-174870000D03*
X-22210000Y-174870000D03*
X-24750000Y-177410000D03*
D11*
X-22210000Y-177410000D03*
%TD*%
%TO.C,D83*%
G36*
G01*
X-63050000Y-68950001D02*
X-63050000Y-68049999D01*
G75*
G02*
X-62800001Y-67800000I249999J0D01*
G01*
X-62149999Y-67800000D01*
G75*
G02*
X-61900000Y-68049999I0J-249999D01*
G01*
X-61900000Y-68950001D01*
G75*
G02*
X-62149999Y-69200000I-249999J0D01*
G01*
X-62800001Y-69200000D01*
G75*
G02*
X-63050000Y-68950001I0J249999D01*
G01*
G37*
G36*
G01*
X-65100000Y-68950001D02*
X-65100000Y-68049999D01*
G75*
G02*
X-64850001Y-67800000I249999J0D01*
G01*
X-64199999Y-67800000D01*
G75*
G02*
X-63950000Y-68049999I0J-249999D01*
G01*
X-63950000Y-68950001D01*
G75*
G02*
X-64199999Y-69200000I-249999J0D01*
G01*
X-64850001Y-69200000D01*
G75*
G02*
X-65100000Y-68950001I0J249999D01*
G01*
G37*
%TD*%
%TO.C,D82*%
G36*
G01*
X-63050000Y-65450001D02*
X-63050000Y-64549999D01*
G75*
G02*
X-62800001Y-64300000I249999J0D01*
G01*
X-62149999Y-64300000D01*
G75*
G02*
X-61900000Y-64549999I0J-249999D01*
G01*
X-61900000Y-65450001D01*
G75*
G02*
X-62149999Y-65700000I-249999J0D01*
G01*
X-62800001Y-65700000D01*
G75*
G02*
X-63050000Y-65450001I0J249999D01*
G01*
G37*
G36*
G01*
X-65100000Y-65450001D02*
X-65100000Y-64549999D01*
G75*
G02*
X-64850001Y-64300000I249999J0D01*
G01*
X-64199999Y-64300000D01*
G75*
G02*
X-63950000Y-64549999I0J-249999D01*
G01*
X-63950000Y-65450001D01*
G75*
G02*
X-64199999Y-65700000I-249999J0D01*
G01*
X-64850001Y-65700000D01*
G75*
G02*
X-65100000Y-65450001I0J249999D01*
G01*
G37*
%TD*%
%TO.C,D81*%
G36*
G01*
X-63050000Y-61950001D02*
X-63050000Y-61049999D01*
G75*
G02*
X-62800001Y-60800000I249999J0D01*
G01*
X-62149999Y-60800000D01*
G75*
G02*
X-61900000Y-61049999I0J-249999D01*
G01*
X-61900000Y-61950001D01*
G75*
G02*
X-62149999Y-62200000I-249999J0D01*
G01*
X-62800001Y-62200000D01*
G75*
G02*
X-63050000Y-61950001I0J249999D01*
G01*
G37*
G36*
G01*
X-65100000Y-61950001D02*
X-65100000Y-61049999D01*
G75*
G02*
X-64850001Y-60800000I249999J0D01*
G01*
X-64199999Y-60800000D01*
G75*
G02*
X-63950000Y-61049999I0J-249999D01*
G01*
X-63950000Y-61950001D01*
G75*
G02*
X-64199999Y-62200000I-249999J0D01*
G01*
X-64850001Y-62200000D01*
G75*
G02*
X-65100000Y-61950001I0J249999D01*
G01*
G37*
%TD*%
%TO.C,D80*%
G36*
G01*
X-63050000Y-58450001D02*
X-63050000Y-57549999D01*
G75*
G02*
X-62800001Y-57300000I249999J0D01*
G01*
X-62149999Y-57300000D01*
G75*
G02*
X-61900000Y-57549999I0J-249999D01*
G01*
X-61900000Y-58450001D01*
G75*
G02*
X-62149999Y-58700000I-249999J0D01*
G01*
X-62800001Y-58700000D01*
G75*
G02*
X-63050000Y-58450001I0J249999D01*
G01*
G37*
G36*
G01*
X-65100000Y-58450001D02*
X-65100000Y-57549999D01*
G75*
G02*
X-64850001Y-57300000I249999J0D01*
G01*
X-64199999Y-57300000D01*
G75*
G02*
X-63950000Y-57549999I0J-249999D01*
G01*
X-63950000Y-58450001D01*
G75*
G02*
X-64199999Y-58700000I-249999J0D01*
G01*
X-64850001Y-58700000D01*
G75*
G02*
X-65100000Y-58450001I0J249999D01*
G01*
G37*
%TD*%
%TO.C,D79*%
G36*
G01*
X-63050000Y-54950001D02*
X-63050000Y-54049999D01*
G75*
G02*
X-62800001Y-53800000I249999J0D01*
G01*
X-62149999Y-53800000D01*
G75*
G02*
X-61900000Y-54049999I0J-249999D01*
G01*
X-61900000Y-54950001D01*
G75*
G02*
X-62149999Y-55200000I-249999J0D01*
G01*
X-62800001Y-55200000D01*
G75*
G02*
X-63050000Y-54950001I0J249999D01*
G01*
G37*
G36*
G01*
X-65100000Y-54950001D02*
X-65100000Y-54049999D01*
G75*
G02*
X-64850001Y-53800000I249999J0D01*
G01*
X-64199999Y-53800000D01*
G75*
G02*
X-63950000Y-54049999I0J-249999D01*
G01*
X-63950000Y-54950001D01*
G75*
G02*
X-64199999Y-55200000I-249999J0D01*
G01*
X-64850001Y-55200000D01*
G75*
G02*
X-65100000Y-54950001I0J249999D01*
G01*
G37*
%TD*%
%TO.C,D78*%
G36*
G01*
X-63050000Y-51450001D02*
X-63050000Y-50549999D01*
G75*
G02*
X-62800001Y-50300000I249999J0D01*
G01*
X-62149999Y-50300000D01*
G75*
G02*
X-61900000Y-50549999I0J-249999D01*
G01*
X-61900000Y-51450001D01*
G75*
G02*
X-62149999Y-51700000I-249999J0D01*
G01*
X-62800001Y-51700000D01*
G75*
G02*
X-63050000Y-51450001I0J249999D01*
G01*
G37*
G36*
G01*
X-65100000Y-51450001D02*
X-65100000Y-50549999D01*
G75*
G02*
X-64850001Y-50300000I249999J0D01*
G01*
X-64199999Y-50300000D01*
G75*
G02*
X-63950000Y-50549999I0J-249999D01*
G01*
X-63950000Y-51450001D01*
G75*
G02*
X-64199999Y-51700000I-249999J0D01*
G01*
X-64850001Y-51700000D01*
G75*
G02*
X-65100000Y-51450001I0J249999D01*
G01*
G37*
%TD*%
%TO.C,D77*%
G36*
G01*
X-63050000Y-47950001D02*
X-63050000Y-47049999D01*
G75*
G02*
X-62800001Y-46800000I249999J0D01*
G01*
X-62149999Y-46800000D01*
G75*
G02*
X-61900000Y-47049999I0J-249999D01*
G01*
X-61900000Y-47950001D01*
G75*
G02*
X-62149999Y-48200000I-249999J0D01*
G01*
X-62800001Y-48200000D01*
G75*
G02*
X-63050000Y-47950001I0J249999D01*
G01*
G37*
G36*
G01*
X-65100000Y-47950001D02*
X-65100000Y-47049999D01*
G75*
G02*
X-64850001Y-46800000I249999J0D01*
G01*
X-64199999Y-46800000D01*
G75*
G02*
X-63950000Y-47049999I0J-249999D01*
G01*
X-63950000Y-47950001D01*
G75*
G02*
X-64199999Y-48200000I-249999J0D01*
G01*
X-64850001Y-48200000D01*
G75*
G02*
X-65100000Y-47950001I0J249999D01*
G01*
G37*
%TD*%
%TO.C,D76*%
G36*
G01*
X-63050000Y-44450001D02*
X-63050000Y-43549999D01*
G75*
G02*
X-62800001Y-43300000I249999J0D01*
G01*
X-62149999Y-43300000D01*
G75*
G02*
X-61900000Y-43549999I0J-249999D01*
G01*
X-61900000Y-44450001D01*
G75*
G02*
X-62149999Y-44700000I-249999J0D01*
G01*
X-62800001Y-44700000D01*
G75*
G02*
X-63050000Y-44450001I0J249999D01*
G01*
G37*
G36*
G01*
X-65100000Y-44450001D02*
X-65100000Y-43549999D01*
G75*
G02*
X-64850001Y-43300000I249999J0D01*
G01*
X-64199999Y-43300000D01*
G75*
G02*
X-63950000Y-43549999I0J-249999D01*
G01*
X-63950000Y-44450001D01*
G75*
G02*
X-64199999Y-44700000I-249999J0D01*
G01*
X-64850001Y-44700000D01*
G75*
G02*
X-65100000Y-44450001I0J249999D01*
G01*
G37*
%TD*%
%TO.C,D75*%
G36*
G01*
X-63050000Y-40950001D02*
X-63050000Y-40049999D01*
G75*
G02*
X-62800001Y-39800000I249999J0D01*
G01*
X-62149999Y-39800000D01*
G75*
G02*
X-61900000Y-40049999I0J-249999D01*
G01*
X-61900000Y-40950001D01*
G75*
G02*
X-62149999Y-41200000I-249999J0D01*
G01*
X-62800001Y-41200000D01*
G75*
G02*
X-63050000Y-40950001I0J249999D01*
G01*
G37*
G36*
G01*
X-65100000Y-40950001D02*
X-65100000Y-40049999D01*
G75*
G02*
X-64850001Y-39800000I249999J0D01*
G01*
X-64199999Y-39800000D01*
G75*
G02*
X-63950000Y-40049999I0J-249999D01*
G01*
X-63950000Y-40950001D01*
G75*
G02*
X-64199999Y-41200000I-249999J0D01*
G01*
X-64850001Y-41200000D01*
G75*
G02*
X-65100000Y-40950001I0J249999D01*
G01*
G37*
%TD*%
%TO.C,D74*%
G36*
G01*
X-63050000Y-37450001D02*
X-63050000Y-36549999D01*
G75*
G02*
X-62800001Y-36300000I249999J0D01*
G01*
X-62149999Y-36300000D01*
G75*
G02*
X-61900000Y-36549999I0J-249999D01*
G01*
X-61900000Y-37450001D01*
G75*
G02*
X-62149999Y-37700000I-249999J0D01*
G01*
X-62800001Y-37700000D01*
G75*
G02*
X-63050000Y-37450001I0J249999D01*
G01*
G37*
G36*
G01*
X-65100000Y-37450001D02*
X-65100000Y-36549999D01*
G75*
G02*
X-64850001Y-36300000I249999J0D01*
G01*
X-64199999Y-36300000D01*
G75*
G02*
X-63950000Y-36549999I0J-249999D01*
G01*
X-63950000Y-37450001D01*
G75*
G02*
X-64199999Y-37700000I-249999J0D01*
G01*
X-64850001Y-37700000D01*
G75*
G02*
X-65100000Y-37450001I0J249999D01*
G01*
G37*
%TD*%
%TO.C,D73*%
G36*
G01*
X-63050000Y-33950001D02*
X-63050000Y-33049999D01*
G75*
G02*
X-62800001Y-32800000I249999J0D01*
G01*
X-62149999Y-32800000D01*
G75*
G02*
X-61900000Y-33049999I0J-249999D01*
G01*
X-61900000Y-33950001D01*
G75*
G02*
X-62149999Y-34200000I-249999J0D01*
G01*
X-62800001Y-34200000D01*
G75*
G02*
X-63050000Y-33950001I0J249999D01*
G01*
G37*
G36*
G01*
X-65100000Y-33950001D02*
X-65100000Y-33049999D01*
G75*
G02*
X-64850001Y-32800000I249999J0D01*
G01*
X-64199999Y-32800000D01*
G75*
G02*
X-63950000Y-33049999I0J-249999D01*
G01*
X-63950000Y-33950001D01*
G75*
G02*
X-64199999Y-34200000I-249999J0D01*
G01*
X-64850001Y-34200000D01*
G75*
G02*
X-65100000Y-33950001I0J249999D01*
G01*
G37*
%TD*%
%TO.C,D72*%
G36*
G01*
X-63050000Y-30450001D02*
X-63050000Y-29549999D01*
G75*
G02*
X-62800001Y-29300000I249999J0D01*
G01*
X-62149999Y-29300000D01*
G75*
G02*
X-61900000Y-29549999I0J-249999D01*
G01*
X-61900000Y-30450001D01*
G75*
G02*
X-62149999Y-30700000I-249999J0D01*
G01*
X-62800001Y-30700000D01*
G75*
G02*
X-63050000Y-30450001I0J249999D01*
G01*
G37*
G36*
G01*
X-65100000Y-30450001D02*
X-65100000Y-29549999D01*
G75*
G02*
X-64850001Y-29300000I249999J0D01*
G01*
X-64199999Y-29300000D01*
G75*
G02*
X-63950000Y-29549999I0J-249999D01*
G01*
X-63950000Y-30450001D01*
G75*
G02*
X-64199999Y-30700000I-249999J0D01*
G01*
X-64850001Y-30700000D01*
G75*
G02*
X-65100000Y-30450001I0J249999D01*
G01*
G37*
%TD*%
%TO.C,D71*%
G36*
G01*
X-63050000Y-26950001D02*
X-63050000Y-26049999D01*
G75*
G02*
X-62800001Y-25800000I249999J0D01*
G01*
X-62149999Y-25800000D01*
G75*
G02*
X-61900000Y-26049999I0J-249999D01*
G01*
X-61900000Y-26950001D01*
G75*
G02*
X-62149999Y-27200000I-249999J0D01*
G01*
X-62800001Y-27200000D01*
G75*
G02*
X-63050000Y-26950001I0J249999D01*
G01*
G37*
G36*
G01*
X-65100000Y-26950001D02*
X-65100000Y-26049999D01*
G75*
G02*
X-64850001Y-25800000I249999J0D01*
G01*
X-64199999Y-25800000D01*
G75*
G02*
X-63950000Y-26049999I0J-249999D01*
G01*
X-63950000Y-26950001D01*
G75*
G02*
X-64199999Y-27200000I-249999J0D01*
G01*
X-64850001Y-27200000D01*
G75*
G02*
X-65100000Y-26950001I0J249999D01*
G01*
G37*
%TD*%
%TO.C,D70*%
G36*
G01*
X-63050000Y-23450001D02*
X-63050000Y-22549999D01*
G75*
G02*
X-62800001Y-22300000I249999J0D01*
G01*
X-62149999Y-22300000D01*
G75*
G02*
X-61900000Y-22549999I0J-249999D01*
G01*
X-61900000Y-23450001D01*
G75*
G02*
X-62149999Y-23700000I-249999J0D01*
G01*
X-62800001Y-23700000D01*
G75*
G02*
X-63050000Y-23450001I0J249999D01*
G01*
G37*
G36*
G01*
X-65100000Y-23450001D02*
X-65100000Y-22549999D01*
G75*
G02*
X-64850001Y-22300000I249999J0D01*
G01*
X-64199999Y-22300000D01*
G75*
G02*
X-63950000Y-22549999I0J-249999D01*
G01*
X-63950000Y-23450001D01*
G75*
G02*
X-64199999Y-23700000I-249999J0D01*
G01*
X-64850001Y-23700000D01*
G75*
G02*
X-65100000Y-23450001I0J249999D01*
G01*
G37*
%TD*%
%TO.C,D69*%
G36*
G01*
X-63050000Y-19950001D02*
X-63050000Y-19049999D01*
G75*
G02*
X-62800001Y-18800000I249999J0D01*
G01*
X-62149999Y-18800000D01*
G75*
G02*
X-61900000Y-19049999I0J-249999D01*
G01*
X-61900000Y-19950001D01*
G75*
G02*
X-62149999Y-20200000I-249999J0D01*
G01*
X-62800001Y-20200000D01*
G75*
G02*
X-63050000Y-19950001I0J249999D01*
G01*
G37*
G36*
G01*
X-65100000Y-19950001D02*
X-65100000Y-19049999D01*
G75*
G02*
X-64850001Y-18800000I249999J0D01*
G01*
X-64199999Y-18800000D01*
G75*
G02*
X-63950000Y-19049999I0J-249999D01*
G01*
X-63950000Y-19950001D01*
G75*
G02*
X-64199999Y-20200000I-249999J0D01*
G01*
X-64850001Y-20200000D01*
G75*
G02*
X-65100000Y-19950001I0J249999D01*
G01*
G37*
%TD*%
%TO.C,D68*%
G36*
G01*
X-63050000Y-16450001D02*
X-63050000Y-15549999D01*
G75*
G02*
X-62800001Y-15300000I249999J0D01*
G01*
X-62149999Y-15300000D01*
G75*
G02*
X-61900000Y-15549999I0J-249999D01*
G01*
X-61900000Y-16450001D01*
G75*
G02*
X-62149999Y-16700000I-249999J0D01*
G01*
X-62800001Y-16700000D01*
G75*
G02*
X-63050000Y-16450001I0J249999D01*
G01*
G37*
G36*
G01*
X-65100000Y-16450001D02*
X-65100000Y-15549999D01*
G75*
G02*
X-64850001Y-15300000I249999J0D01*
G01*
X-64199999Y-15300000D01*
G75*
G02*
X-63950000Y-15549999I0J-249999D01*
G01*
X-63950000Y-16450001D01*
G75*
G02*
X-64199999Y-16700000I-249999J0D01*
G01*
X-64850001Y-16700000D01*
G75*
G02*
X-65100000Y-16450001I0J249999D01*
G01*
G37*
%TD*%
%TO.C,D67*%
G36*
G01*
X-161550000Y-197450001D02*
X-161550000Y-196549999D01*
G75*
G02*
X-161300001Y-196300000I249999J0D01*
G01*
X-160649999Y-196300000D01*
G75*
G02*
X-160400000Y-196549999I0J-249999D01*
G01*
X-160400000Y-197450001D01*
G75*
G02*
X-160649999Y-197700000I-249999J0D01*
G01*
X-161300001Y-197700000D01*
G75*
G02*
X-161550000Y-197450001I0J249999D01*
G01*
G37*
G36*
G01*
X-163600000Y-197450001D02*
X-163600000Y-196549999D01*
G75*
G02*
X-163350001Y-196300000I249999J0D01*
G01*
X-162699999Y-196300000D01*
G75*
G02*
X-162450000Y-196549999I0J-249999D01*
G01*
X-162450000Y-197450001D01*
G75*
G02*
X-162699999Y-197700000I-249999J0D01*
G01*
X-163350001Y-197700000D01*
G75*
G02*
X-163600000Y-197450001I0J249999D01*
G01*
G37*
%TD*%
%TO.C,D66*%
G36*
G01*
X-161550000Y-193950001D02*
X-161550000Y-193049999D01*
G75*
G02*
X-161300001Y-192800000I249999J0D01*
G01*
X-160649999Y-192800000D01*
G75*
G02*
X-160400000Y-193049999I0J-249999D01*
G01*
X-160400000Y-193950001D01*
G75*
G02*
X-160649999Y-194200000I-249999J0D01*
G01*
X-161300001Y-194200000D01*
G75*
G02*
X-161550000Y-193950001I0J249999D01*
G01*
G37*
G36*
G01*
X-163600000Y-193950001D02*
X-163600000Y-193049999D01*
G75*
G02*
X-163350001Y-192800000I249999J0D01*
G01*
X-162699999Y-192800000D01*
G75*
G02*
X-162450000Y-193049999I0J-249999D01*
G01*
X-162450000Y-193950001D01*
G75*
G02*
X-162699999Y-194200000I-249999J0D01*
G01*
X-163350001Y-194200000D01*
G75*
G02*
X-163600000Y-193950001I0J249999D01*
G01*
G37*
%TD*%
%TO.C,D65*%
G36*
G01*
X-161550000Y-190450001D02*
X-161550000Y-189549999D01*
G75*
G02*
X-161300001Y-189300000I249999J0D01*
G01*
X-160649999Y-189300000D01*
G75*
G02*
X-160400000Y-189549999I0J-249999D01*
G01*
X-160400000Y-190450001D01*
G75*
G02*
X-160649999Y-190700000I-249999J0D01*
G01*
X-161300001Y-190700000D01*
G75*
G02*
X-161550000Y-190450001I0J249999D01*
G01*
G37*
G36*
G01*
X-163600000Y-190450001D02*
X-163600000Y-189549999D01*
G75*
G02*
X-163350001Y-189300000I249999J0D01*
G01*
X-162699999Y-189300000D01*
G75*
G02*
X-162450000Y-189549999I0J-249999D01*
G01*
X-162450000Y-190450001D01*
G75*
G02*
X-162699999Y-190700000I-249999J0D01*
G01*
X-163350001Y-190700000D01*
G75*
G02*
X-163600000Y-190450001I0J249999D01*
G01*
G37*
%TD*%
%TO.C,D64*%
G36*
G01*
X-161550000Y-186950001D02*
X-161550000Y-186049999D01*
G75*
G02*
X-161300001Y-185800000I249999J0D01*
G01*
X-160649999Y-185800000D01*
G75*
G02*
X-160400000Y-186049999I0J-249999D01*
G01*
X-160400000Y-186950001D01*
G75*
G02*
X-160649999Y-187200000I-249999J0D01*
G01*
X-161300001Y-187200000D01*
G75*
G02*
X-161550000Y-186950001I0J249999D01*
G01*
G37*
G36*
G01*
X-163600000Y-186950001D02*
X-163600000Y-186049999D01*
G75*
G02*
X-163350001Y-185800000I249999J0D01*
G01*
X-162699999Y-185800000D01*
G75*
G02*
X-162450000Y-186049999I0J-249999D01*
G01*
X-162450000Y-186950001D01*
G75*
G02*
X-162699999Y-187200000I-249999J0D01*
G01*
X-163350001Y-187200000D01*
G75*
G02*
X-163600000Y-186950001I0J249999D01*
G01*
G37*
%TD*%
%TO.C,D63*%
G36*
G01*
X-161550000Y-183450001D02*
X-161550000Y-182549999D01*
G75*
G02*
X-161300001Y-182300000I249999J0D01*
G01*
X-160649999Y-182300000D01*
G75*
G02*
X-160400000Y-182549999I0J-249999D01*
G01*
X-160400000Y-183450001D01*
G75*
G02*
X-160649999Y-183700000I-249999J0D01*
G01*
X-161300001Y-183700000D01*
G75*
G02*
X-161550000Y-183450001I0J249999D01*
G01*
G37*
G36*
G01*
X-163600000Y-183450001D02*
X-163600000Y-182549999D01*
G75*
G02*
X-163350001Y-182300000I249999J0D01*
G01*
X-162699999Y-182300000D01*
G75*
G02*
X-162450000Y-182549999I0J-249999D01*
G01*
X-162450000Y-183450001D01*
G75*
G02*
X-162699999Y-183700000I-249999J0D01*
G01*
X-163350001Y-183700000D01*
G75*
G02*
X-163600000Y-183450001I0J249999D01*
G01*
G37*
%TD*%
%TO.C,D62*%
G36*
G01*
X-161550000Y-179950001D02*
X-161550000Y-179049999D01*
G75*
G02*
X-161300001Y-178800000I249999J0D01*
G01*
X-160649999Y-178800000D01*
G75*
G02*
X-160400000Y-179049999I0J-249999D01*
G01*
X-160400000Y-179950001D01*
G75*
G02*
X-160649999Y-180200000I-249999J0D01*
G01*
X-161300001Y-180200000D01*
G75*
G02*
X-161550000Y-179950001I0J249999D01*
G01*
G37*
G36*
G01*
X-163600000Y-179950001D02*
X-163600000Y-179049999D01*
G75*
G02*
X-163350001Y-178800000I249999J0D01*
G01*
X-162699999Y-178800000D01*
G75*
G02*
X-162450000Y-179049999I0J-249999D01*
G01*
X-162450000Y-179950001D01*
G75*
G02*
X-162699999Y-180200000I-249999J0D01*
G01*
X-163350001Y-180200000D01*
G75*
G02*
X-163600000Y-179950001I0J249999D01*
G01*
G37*
%TD*%
%TO.C,D61*%
G36*
G01*
X-161550000Y-176450001D02*
X-161550000Y-175549999D01*
G75*
G02*
X-161300001Y-175300000I249999J0D01*
G01*
X-160649999Y-175300000D01*
G75*
G02*
X-160400000Y-175549999I0J-249999D01*
G01*
X-160400000Y-176450001D01*
G75*
G02*
X-160649999Y-176700000I-249999J0D01*
G01*
X-161300001Y-176700000D01*
G75*
G02*
X-161550000Y-176450001I0J249999D01*
G01*
G37*
G36*
G01*
X-163600000Y-176450001D02*
X-163600000Y-175549999D01*
G75*
G02*
X-163350001Y-175300000I249999J0D01*
G01*
X-162699999Y-175300000D01*
G75*
G02*
X-162450000Y-175549999I0J-249999D01*
G01*
X-162450000Y-176450001D01*
G75*
G02*
X-162699999Y-176700000I-249999J0D01*
G01*
X-163350001Y-176700000D01*
G75*
G02*
X-163600000Y-176450001I0J249999D01*
G01*
G37*
%TD*%
%TO.C,D60*%
G36*
G01*
X-161550000Y-172950001D02*
X-161550000Y-172049999D01*
G75*
G02*
X-161300001Y-171800000I249999J0D01*
G01*
X-160649999Y-171800000D01*
G75*
G02*
X-160400000Y-172049999I0J-249999D01*
G01*
X-160400000Y-172950001D01*
G75*
G02*
X-160649999Y-173200000I-249999J0D01*
G01*
X-161300001Y-173200000D01*
G75*
G02*
X-161550000Y-172950001I0J249999D01*
G01*
G37*
G36*
G01*
X-163600000Y-172950001D02*
X-163600000Y-172049999D01*
G75*
G02*
X-163350001Y-171800000I249999J0D01*
G01*
X-162699999Y-171800000D01*
G75*
G02*
X-162450000Y-172049999I0J-249999D01*
G01*
X-162450000Y-172950001D01*
G75*
G02*
X-162699999Y-173200000I-249999J0D01*
G01*
X-163350001Y-173200000D01*
G75*
G02*
X-163600000Y-172950001I0J249999D01*
G01*
G37*
%TD*%
%TO.C,D59*%
G36*
G01*
X-161550000Y-169450001D02*
X-161550000Y-168549999D01*
G75*
G02*
X-161300001Y-168300000I249999J0D01*
G01*
X-160649999Y-168300000D01*
G75*
G02*
X-160400000Y-168549999I0J-249999D01*
G01*
X-160400000Y-169450001D01*
G75*
G02*
X-160649999Y-169700000I-249999J0D01*
G01*
X-161300001Y-169700000D01*
G75*
G02*
X-161550000Y-169450001I0J249999D01*
G01*
G37*
G36*
G01*
X-163600000Y-169450001D02*
X-163600000Y-168549999D01*
G75*
G02*
X-163350001Y-168300000I249999J0D01*
G01*
X-162699999Y-168300000D01*
G75*
G02*
X-162450000Y-168549999I0J-249999D01*
G01*
X-162450000Y-169450001D01*
G75*
G02*
X-162699999Y-169700000I-249999J0D01*
G01*
X-163350001Y-169700000D01*
G75*
G02*
X-163600000Y-169450001I0J249999D01*
G01*
G37*
%TD*%
%TO.C,D58*%
G36*
G01*
X-161550000Y-165950001D02*
X-161550000Y-165049999D01*
G75*
G02*
X-161300001Y-164800000I249999J0D01*
G01*
X-160649999Y-164800000D01*
G75*
G02*
X-160400000Y-165049999I0J-249999D01*
G01*
X-160400000Y-165950001D01*
G75*
G02*
X-160649999Y-166200000I-249999J0D01*
G01*
X-161300001Y-166200000D01*
G75*
G02*
X-161550000Y-165950001I0J249999D01*
G01*
G37*
G36*
G01*
X-163600000Y-165950001D02*
X-163600000Y-165049999D01*
G75*
G02*
X-163350001Y-164800000I249999J0D01*
G01*
X-162699999Y-164800000D01*
G75*
G02*
X-162450000Y-165049999I0J-249999D01*
G01*
X-162450000Y-165950001D01*
G75*
G02*
X-162699999Y-166200000I-249999J0D01*
G01*
X-163350001Y-166200000D01*
G75*
G02*
X-163600000Y-165950001I0J249999D01*
G01*
G37*
%TD*%
%TO.C,D57*%
G36*
G01*
X-161550000Y-162450001D02*
X-161550000Y-161549999D01*
G75*
G02*
X-161300001Y-161300000I249999J0D01*
G01*
X-160649999Y-161300000D01*
G75*
G02*
X-160400000Y-161549999I0J-249999D01*
G01*
X-160400000Y-162450001D01*
G75*
G02*
X-160649999Y-162700000I-249999J0D01*
G01*
X-161300001Y-162700000D01*
G75*
G02*
X-161550000Y-162450001I0J249999D01*
G01*
G37*
G36*
G01*
X-163600000Y-162450001D02*
X-163600000Y-161549999D01*
G75*
G02*
X-163350001Y-161300000I249999J0D01*
G01*
X-162699999Y-161300000D01*
G75*
G02*
X-162450000Y-161549999I0J-249999D01*
G01*
X-162450000Y-162450001D01*
G75*
G02*
X-162699999Y-162700000I-249999J0D01*
G01*
X-163350001Y-162700000D01*
G75*
G02*
X-163600000Y-162450001I0J249999D01*
G01*
G37*
%TD*%
%TO.C,D56*%
G36*
G01*
X-161550000Y-158950001D02*
X-161550000Y-158049999D01*
G75*
G02*
X-161300001Y-157800000I249999J0D01*
G01*
X-160649999Y-157800000D01*
G75*
G02*
X-160400000Y-158049999I0J-249999D01*
G01*
X-160400000Y-158950001D01*
G75*
G02*
X-160649999Y-159200000I-249999J0D01*
G01*
X-161300001Y-159200000D01*
G75*
G02*
X-161550000Y-158950001I0J249999D01*
G01*
G37*
G36*
G01*
X-163600000Y-158950001D02*
X-163600000Y-158049999D01*
G75*
G02*
X-163350001Y-157800000I249999J0D01*
G01*
X-162699999Y-157800000D01*
G75*
G02*
X-162450000Y-158049999I0J-249999D01*
G01*
X-162450000Y-158950001D01*
G75*
G02*
X-162699999Y-159200000I-249999J0D01*
G01*
X-163350001Y-159200000D01*
G75*
G02*
X-163600000Y-158950001I0J249999D01*
G01*
G37*
%TD*%
%TO.C,D55*%
G36*
G01*
X-161550000Y-155450001D02*
X-161550000Y-154549999D01*
G75*
G02*
X-161300001Y-154300000I249999J0D01*
G01*
X-160649999Y-154300000D01*
G75*
G02*
X-160400000Y-154549999I0J-249999D01*
G01*
X-160400000Y-155450001D01*
G75*
G02*
X-160649999Y-155700000I-249999J0D01*
G01*
X-161300001Y-155700000D01*
G75*
G02*
X-161550000Y-155450001I0J249999D01*
G01*
G37*
G36*
G01*
X-163600000Y-155450001D02*
X-163600000Y-154549999D01*
G75*
G02*
X-163350001Y-154300000I249999J0D01*
G01*
X-162699999Y-154300000D01*
G75*
G02*
X-162450000Y-154549999I0J-249999D01*
G01*
X-162450000Y-155450001D01*
G75*
G02*
X-162699999Y-155700000I-249999J0D01*
G01*
X-163350001Y-155700000D01*
G75*
G02*
X-163600000Y-155450001I0J249999D01*
G01*
G37*
%TD*%
%TO.C,D54*%
G36*
G01*
X-161550000Y-151950001D02*
X-161550000Y-151049999D01*
G75*
G02*
X-161300001Y-150800000I249999J0D01*
G01*
X-160649999Y-150800000D01*
G75*
G02*
X-160400000Y-151049999I0J-249999D01*
G01*
X-160400000Y-151950001D01*
G75*
G02*
X-160649999Y-152200000I-249999J0D01*
G01*
X-161300001Y-152200000D01*
G75*
G02*
X-161550000Y-151950001I0J249999D01*
G01*
G37*
G36*
G01*
X-163600000Y-151950001D02*
X-163600000Y-151049999D01*
G75*
G02*
X-163350001Y-150800000I249999J0D01*
G01*
X-162699999Y-150800000D01*
G75*
G02*
X-162450000Y-151049999I0J-249999D01*
G01*
X-162450000Y-151950001D01*
G75*
G02*
X-162699999Y-152200000I-249999J0D01*
G01*
X-163350001Y-152200000D01*
G75*
G02*
X-163600000Y-151950001I0J249999D01*
G01*
G37*
%TD*%
%TO.C,D53*%
G36*
G01*
X-161550000Y-148450001D02*
X-161550000Y-147549999D01*
G75*
G02*
X-161300001Y-147300000I249999J0D01*
G01*
X-160649999Y-147300000D01*
G75*
G02*
X-160400000Y-147549999I0J-249999D01*
G01*
X-160400000Y-148450001D01*
G75*
G02*
X-160649999Y-148700000I-249999J0D01*
G01*
X-161300001Y-148700000D01*
G75*
G02*
X-161550000Y-148450001I0J249999D01*
G01*
G37*
G36*
G01*
X-163600000Y-148450001D02*
X-163600000Y-147549999D01*
G75*
G02*
X-163350001Y-147300000I249999J0D01*
G01*
X-162699999Y-147300000D01*
G75*
G02*
X-162450000Y-147549999I0J-249999D01*
G01*
X-162450000Y-148450001D01*
G75*
G02*
X-162699999Y-148700000I-249999J0D01*
G01*
X-163350001Y-148700000D01*
G75*
G02*
X-163600000Y-148450001I0J249999D01*
G01*
G37*
%TD*%
%TO.C,D52*%
G36*
G01*
X-161550000Y-144950001D02*
X-161550000Y-144049999D01*
G75*
G02*
X-161300001Y-143800000I249999J0D01*
G01*
X-160649999Y-143800000D01*
G75*
G02*
X-160400000Y-144049999I0J-249999D01*
G01*
X-160400000Y-144950001D01*
G75*
G02*
X-160649999Y-145200000I-249999J0D01*
G01*
X-161300001Y-145200000D01*
G75*
G02*
X-161550000Y-144950001I0J249999D01*
G01*
G37*
G36*
G01*
X-163600000Y-144950001D02*
X-163600000Y-144049999D01*
G75*
G02*
X-163350001Y-143800000I249999J0D01*
G01*
X-162699999Y-143800000D01*
G75*
G02*
X-162450000Y-144049999I0J-249999D01*
G01*
X-162450000Y-144950001D01*
G75*
G02*
X-162699999Y-145200000I-249999J0D01*
G01*
X-163350001Y-145200000D01*
G75*
G02*
X-163600000Y-144950001I0J249999D01*
G01*
G37*
%TD*%
%TO.C,D51*%
G36*
G01*
X-62549999Y-151550000D02*
X-63450001Y-151550000D01*
G75*
G02*
X-63700000Y-151300001I0J249999D01*
G01*
X-63700000Y-150649999D01*
G75*
G02*
X-63450001Y-150400000I249999J0D01*
G01*
X-62549999Y-150400000D01*
G75*
G02*
X-62300000Y-150649999I0J-249999D01*
G01*
X-62300000Y-151300001D01*
G75*
G02*
X-62549999Y-151550000I-249999J0D01*
G01*
G37*
G36*
G01*
X-62549999Y-153600000D02*
X-63450001Y-153600000D01*
G75*
G02*
X-63700000Y-153350001I0J249999D01*
G01*
X-63700000Y-152699999D01*
G75*
G02*
X-63450001Y-152450000I249999J0D01*
G01*
X-62549999Y-152450000D01*
G75*
G02*
X-62300000Y-152699999I0J-249999D01*
G01*
X-62300000Y-153350001D01*
G75*
G02*
X-62549999Y-153600000I-249999J0D01*
G01*
G37*
%TD*%
%TO.C,D50*%
G36*
G01*
X-66049999Y-151550000D02*
X-66950001Y-151550000D01*
G75*
G02*
X-67200000Y-151300001I0J249999D01*
G01*
X-67200000Y-150649999D01*
G75*
G02*
X-66950001Y-150400000I249999J0D01*
G01*
X-66049999Y-150400000D01*
G75*
G02*
X-65800000Y-150649999I0J-249999D01*
G01*
X-65800000Y-151300001D01*
G75*
G02*
X-66049999Y-151550000I-249999J0D01*
G01*
G37*
G36*
G01*
X-66049999Y-153600000D02*
X-66950001Y-153600000D01*
G75*
G02*
X-67200000Y-153350001I0J249999D01*
G01*
X-67200000Y-152699999D01*
G75*
G02*
X-66950001Y-152450000I249999J0D01*
G01*
X-66049999Y-152450000D01*
G75*
G02*
X-65800000Y-152699999I0J-249999D01*
G01*
X-65800000Y-153350001D01*
G75*
G02*
X-66049999Y-153600000I-249999J0D01*
G01*
G37*
%TD*%
%TO.C,D49*%
G36*
G01*
X-69549999Y-151550000D02*
X-70450001Y-151550000D01*
G75*
G02*
X-70700000Y-151300001I0J249999D01*
G01*
X-70700000Y-150649999D01*
G75*
G02*
X-70450001Y-150400000I249999J0D01*
G01*
X-69549999Y-150400000D01*
G75*
G02*
X-69300000Y-150649999I0J-249999D01*
G01*
X-69300000Y-151300001D01*
G75*
G02*
X-69549999Y-151550000I-249999J0D01*
G01*
G37*
G36*
G01*
X-69549999Y-153600000D02*
X-70450001Y-153600000D01*
G75*
G02*
X-70700000Y-153350001I0J249999D01*
G01*
X-70700000Y-152699999D01*
G75*
G02*
X-70450001Y-152450000I249999J0D01*
G01*
X-69549999Y-152450000D01*
G75*
G02*
X-69300000Y-152699999I0J-249999D01*
G01*
X-69300000Y-153350001D01*
G75*
G02*
X-69549999Y-153600000I-249999J0D01*
G01*
G37*
%TD*%
%TO.C,D48*%
G36*
G01*
X-73049999Y-151550000D02*
X-73950001Y-151550000D01*
G75*
G02*
X-74200000Y-151300001I0J249999D01*
G01*
X-74200000Y-150649999D01*
G75*
G02*
X-73950001Y-150400000I249999J0D01*
G01*
X-73049999Y-150400000D01*
G75*
G02*
X-72800000Y-150649999I0J-249999D01*
G01*
X-72800000Y-151300001D01*
G75*
G02*
X-73049999Y-151550000I-249999J0D01*
G01*
G37*
G36*
G01*
X-73049999Y-153600000D02*
X-73950001Y-153600000D01*
G75*
G02*
X-74200000Y-153350001I0J249999D01*
G01*
X-74200000Y-152699999D01*
G75*
G02*
X-73950001Y-152450000I249999J0D01*
G01*
X-73049999Y-152450000D01*
G75*
G02*
X-72800000Y-152699999I0J-249999D01*
G01*
X-72800000Y-153350001D01*
G75*
G02*
X-73049999Y-153600000I-249999J0D01*
G01*
G37*
%TD*%
%TO.C,D47*%
G36*
G01*
X-76549999Y-151550000D02*
X-77450001Y-151550000D01*
G75*
G02*
X-77700000Y-151300001I0J249999D01*
G01*
X-77700000Y-150649999D01*
G75*
G02*
X-77450001Y-150400000I249999J0D01*
G01*
X-76549999Y-150400000D01*
G75*
G02*
X-76300000Y-150649999I0J-249999D01*
G01*
X-76300000Y-151300001D01*
G75*
G02*
X-76549999Y-151550000I-249999J0D01*
G01*
G37*
G36*
G01*
X-76549999Y-153600000D02*
X-77450001Y-153600000D01*
G75*
G02*
X-77700000Y-153350001I0J249999D01*
G01*
X-77700000Y-152699999D01*
G75*
G02*
X-77450001Y-152450000I249999J0D01*
G01*
X-76549999Y-152450000D01*
G75*
G02*
X-76300000Y-152699999I0J-249999D01*
G01*
X-76300000Y-153350001D01*
G75*
G02*
X-76549999Y-153600000I-249999J0D01*
G01*
G37*
%TD*%
%TO.C,D46*%
G36*
G01*
X-80049999Y-151550000D02*
X-80950001Y-151550000D01*
G75*
G02*
X-81200000Y-151300001I0J249999D01*
G01*
X-81200000Y-150649999D01*
G75*
G02*
X-80950001Y-150400000I249999J0D01*
G01*
X-80049999Y-150400000D01*
G75*
G02*
X-79800000Y-150649999I0J-249999D01*
G01*
X-79800000Y-151300001D01*
G75*
G02*
X-80049999Y-151550000I-249999J0D01*
G01*
G37*
G36*
G01*
X-80049999Y-153600000D02*
X-80950001Y-153600000D01*
G75*
G02*
X-81200000Y-153350001I0J249999D01*
G01*
X-81200000Y-152699999D01*
G75*
G02*
X-80950001Y-152450000I249999J0D01*
G01*
X-80049999Y-152450000D01*
G75*
G02*
X-79800000Y-152699999I0J-249999D01*
G01*
X-79800000Y-153350001D01*
G75*
G02*
X-80049999Y-153600000I-249999J0D01*
G01*
G37*
%TD*%
%TO.C,D45*%
G36*
G01*
X-83549999Y-151550000D02*
X-84450001Y-151550000D01*
G75*
G02*
X-84700000Y-151300001I0J249999D01*
G01*
X-84700000Y-150649999D01*
G75*
G02*
X-84450001Y-150400000I249999J0D01*
G01*
X-83549999Y-150400000D01*
G75*
G02*
X-83300000Y-150649999I0J-249999D01*
G01*
X-83300000Y-151300001D01*
G75*
G02*
X-83549999Y-151550000I-249999J0D01*
G01*
G37*
G36*
G01*
X-83549999Y-153600000D02*
X-84450001Y-153600000D01*
G75*
G02*
X-84700000Y-153350001I0J249999D01*
G01*
X-84700000Y-152699999D01*
G75*
G02*
X-84450001Y-152450000I249999J0D01*
G01*
X-83549999Y-152450000D01*
G75*
G02*
X-83300000Y-152699999I0J-249999D01*
G01*
X-83300000Y-153350001D01*
G75*
G02*
X-83549999Y-153600000I-249999J0D01*
G01*
G37*
%TD*%
%TO.C,D44*%
G36*
G01*
X-87049999Y-151550000D02*
X-87950001Y-151550000D01*
G75*
G02*
X-88200000Y-151300001I0J249999D01*
G01*
X-88200000Y-150649999D01*
G75*
G02*
X-87950001Y-150400000I249999J0D01*
G01*
X-87049999Y-150400000D01*
G75*
G02*
X-86800000Y-150649999I0J-249999D01*
G01*
X-86800000Y-151300001D01*
G75*
G02*
X-87049999Y-151550000I-249999J0D01*
G01*
G37*
G36*
G01*
X-87049999Y-153600000D02*
X-87950001Y-153600000D01*
G75*
G02*
X-88200000Y-153350001I0J249999D01*
G01*
X-88200000Y-152699999D01*
G75*
G02*
X-87950001Y-152450000I249999J0D01*
G01*
X-87049999Y-152450000D01*
G75*
G02*
X-86800000Y-152699999I0J-249999D01*
G01*
X-86800000Y-153350001D01*
G75*
G02*
X-87049999Y-153600000I-249999J0D01*
G01*
G37*
%TD*%
%TO.C,D43*%
G36*
G01*
X-90549999Y-151550000D02*
X-91450001Y-151550000D01*
G75*
G02*
X-91700000Y-151300001I0J249999D01*
G01*
X-91700000Y-150649999D01*
G75*
G02*
X-91450001Y-150400000I249999J0D01*
G01*
X-90549999Y-150400000D01*
G75*
G02*
X-90300000Y-150649999I0J-249999D01*
G01*
X-90300000Y-151300001D01*
G75*
G02*
X-90549999Y-151550000I-249999J0D01*
G01*
G37*
G36*
G01*
X-90549999Y-153600000D02*
X-91450001Y-153600000D01*
G75*
G02*
X-91700000Y-153350001I0J249999D01*
G01*
X-91700000Y-152699999D01*
G75*
G02*
X-91450001Y-152450000I249999J0D01*
G01*
X-90549999Y-152450000D01*
G75*
G02*
X-90300000Y-152699999I0J-249999D01*
G01*
X-90300000Y-153350001D01*
G75*
G02*
X-90549999Y-153600000I-249999J0D01*
G01*
G37*
%TD*%
%TO.C,D42*%
G36*
G01*
X-62549999Y-186050000D02*
X-63450001Y-186050000D01*
G75*
G02*
X-63700000Y-185800001I0J249999D01*
G01*
X-63700000Y-185149999D01*
G75*
G02*
X-63450001Y-184900000I249999J0D01*
G01*
X-62549999Y-184900000D01*
G75*
G02*
X-62300000Y-185149999I0J-249999D01*
G01*
X-62300000Y-185800001D01*
G75*
G02*
X-62549999Y-186050000I-249999J0D01*
G01*
G37*
G36*
G01*
X-62549999Y-188100000D02*
X-63450001Y-188100000D01*
G75*
G02*
X-63700000Y-187850001I0J249999D01*
G01*
X-63700000Y-187199999D01*
G75*
G02*
X-63450001Y-186950000I249999J0D01*
G01*
X-62549999Y-186950000D01*
G75*
G02*
X-62300000Y-187199999I0J-249999D01*
G01*
X-62300000Y-187850001D01*
G75*
G02*
X-62549999Y-188100000I-249999J0D01*
G01*
G37*
%TD*%
%TO.C,D41*%
G36*
G01*
X-94049999Y-151550000D02*
X-94950001Y-151550000D01*
G75*
G02*
X-95200000Y-151300001I0J249999D01*
G01*
X-95200000Y-150649999D01*
G75*
G02*
X-94950001Y-150400000I249999J0D01*
G01*
X-94049999Y-150400000D01*
G75*
G02*
X-93800000Y-150649999I0J-249999D01*
G01*
X-93800000Y-151300001D01*
G75*
G02*
X-94049999Y-151550000I-249999J0D01*
G01*
G37*
G36*
G01*
X-94049999Y-153600000D02*
X-94950001Y-153600000D01*
G75*
G02*
X-95200000Y-153350001I0J249999D01*
G01*
X-95200000Y-152699999D01*
G75*
G02*
X-94950001Y-152450000I249999J0D01*
G01*
X-94049999Y-152450000D01*
G75*
G02*
X-93800000Y-152699999I0J-249999D01*
G01*
X-93800000Y-153350001D01*
G75*
G02*
X-94049999Y-153600000I-249999J0D01*
G01*
G37*
%TD*%
%TO.C,D40*%
G36*
G01*
X-66049999Y-186050000D02*
X-66950001Y-186050000D01*
G75*
G02*
X-67200000Y-185800001I0J249999D01*
G01*
X-67200000Y-185149999D01*
G75*
G02*
X-66950001Y-184900000I249999J0D01*
G01*
X-66049999Y-184900000D01*
G75*
G02*
X-65800000Y-185149999I0J-249999D01*
G01*
X-65800000Y-185800001D01*
G75*
G02*
X-66049999Y-186050000I-249999J0D01*
G01*
G37*
G36*
G01*
X-66049999Y-188100000D02*
X-66950001Y-188100000D01*
G75*
G02*
X-67200000Y-187850001I0J249999D01*
G01*
X-67200000Y-187199999D01*
G75*
G02*
X-66950001Y-186950000I249999J0D01*
G01*
X-66049999Y-186950000D01*
G75*
G02*
X-65800000Y-187199999I0J-249999D01*
G01*
X-65800000Y-187850001D01*
G75*
G02*
X-66049999Y-188100000I-249999J0D01*
G01*
G37*
%TD*%
%TO.C,D39*%
G36*
G01*
X-97549999Y-151550000D02*
X-98450001Y-151550000D01*
G75*
G02*
X-98700000Y-151300001I0J249999D01*
G01*
X-98700000Y-150649999D01*
G75*
G02*
X-98450001Y-150400000I249999J0D01*
G01*
X-97549999Y-150400000D01*
G75*
G02*
X-97300000Y-150649999I0J-249999D01*
G01*
X-97300000Y-151300001D01*
G75*
G02*
X-97549999Y-151550000I-249999J0D01*
G01*
G37*
G36*
G01*
X-97549999Y-153600000D02*
X-98450001Y-153600000D01*
G75*
G02*
X-98700000Y-153350001I0J249999D01*
G01*
X-98700000Y-152699999D01*
G75*
G02*
X-98450001Y-152450000I249999J0D01*
G01*
X-97549999Y-152450000D01*
G75*
G02*
X-97300000Y-152699999I0J-249999D01*
G01*
X-97300000Y-153350001D01*
G75*
G02*
X-97549999Y-153600000I-249999J0D01*
G01*
G37*
%TD*%
%TO.C,D38*%
G36*
G01*
X-69549999Y-186050000D02*
X-70450001Y-186050000D01*
G75*
G02*
X-70700000Y-185800001I0J249999D01*
G01*
X-70700000Y-185149999D01*
G75*
G02*
X-70450001Y-184900000I249999J0D01*
G01*
X-69549999Y-184900000D01*
G75*
G02*
X-69300000Y-185149999I0J-249999D01*
G01*
X-69300000Y-185800001D01*
G75*
G02*
X-69549999Y-186050000I-249999J0D01*
G01*
G37*
G36*
G01*
X-69549999Y-188100000D02*
X-70450001Y-188100000D01*
G75*
G02*
X-70700000Y-187850001I0J249999D01*
G01*
X-70700000Y-187199999D01*
G75*
G02*
X-70450001Y-186950000I249999J0D01*
G01*
X-69549999Y-186950000D01*
G75*
G02*
X-69300000Y-187199999I0J-249999D01*
G01*
X-69300000Y-187850001D01*
G75*
G02*
X-69549999Y-188100000I-249999J0D01*
G01*
G37*
%TD*%
%TO.C,D37*%
G36*
G01*
X-101049999Y-151550000D02*
X-101950001Y-151550000D01*
G75*
G02*
X-102200000Y-151300001I0J249999D01*
G01*
X-102200000Y-150649999D01*
G75*
G02*
X-101950001Y-150400000I249999J0D01*
G01*
X-101049999Y-150400000D01*
G75*
G02*
X-100800000Y-150649999I0J-249999D01*
G01*
X-100800000Y-151300001D01*
G75*
G02*
X-101049999Y-151550000I-249999J0D01*
G01*
G37*
G36*
G01*
X-101049999Y-153600000D02*
X-101950001Y-153600000D01*
G75*
G02*
X-102200000Y-153350001I0J249999D01*
G01*
X-102200000Y-152699999D01*
G75*
G02*
X-101950001Y-152450000I249999J0D01*
G01*
X-101049999Y-152450000D01*
G75*
G02*
X-100800000Y-152699999I0J-249999D01*
G01*
X-100800000Y-153350001D01*
G75*
G02*
X-101049999Y-153600000I-249999J0D01*
G01*
G37*
%TD*%
%TO.C,D36*%
G36*
G01*
X-73049999Y-186050000D02*
X-73950001Y-186050000D01*
G75*
G02*
X-74200000Y-185800001I0J249999D01*
G01*
X-74200000Y-185149999D01*
G75*
G02*
X-73950001Y-184900000I249999J0D01*
G01*
X-73049999Y-184900000D01*
G75*
G02*
X-72800000Y-185149999I0J-249999D01*
G01*
X-72800000Y-185800001D01*
G75*
G02*
X-73049999Y-186050000I-249999J0D01*
G01*
G37*
G36*
G01*
X-73049999Y-188100000D02*
X-73950001Y-188100000D01*
G75*
G02*
X-74200000Y-187850001I0J249999D01*
G01*
X-74200000Y-187199999D01*
G75*
G02*
X-73950001Y-186950000I249999J0D01*
G01*
X-73049999Y-186950000D01*
G75*
G02*
X-72800000Y-187199999I0J-249999D01*
G01*
X-72800000Y-187850001D01*
G75*
G02*
X-73049999Y-188100000I-249999J0D01*
G01*
G37*
%TD*%
%TO.C,D35*%
G36*
G01*
X-104549999Y-151550000D02*
X-105450001Y-151550000D01*
G75*
G02*
X-105700000Y-151300001I0J249999D01*
G01*
X-105700000Y-150649999D01*
G75*
G02*
X-105450001Y-150400000I249999J0D01*
G01*
X-104549999Y-150400000D01*
G75*
G02*
X-104300000Y-150649999I0J-249999D01*
G01*
X-104300000Y-151300001D01*
G75*
G02*
X-104549999Y-151550000I-249999J0D01*
G01*
G37*
G36*
G01*
X-104549999Y-153600000D02*
X-105450001Y-153600000D01*
G75*
G02*
X-105700000Y-153350001I0J249999D01*
G01*
X-105700000Y-152699999D01*
G75*
G02*
X-105450001Y-152450000I249999J0D01*
G01*
X-104549999Y-152450000D01*
G75*
G02*
X-104300000Y-152699999I0J-249999D01*
G01*
X-104300000Y-153350001D01*
G75*
G02*
X-104549999Y-153600000I-249999J0D01*
G01*
G37*
%TD*%
%TO.C,D34*%
G36*
G01*
X-76549999Y-186050000D02*
X-77450001Y-186050000D01*
G75*
G02*
X-77700000Y-185800001I0J249999D01*
G01*
X-77700000Y-185149999D01*
G75*
G02*
X-77450001Y-184900000I249999J0D01*
G01*
X-76549999Y-184900000D01*
G75*
G02*
X-76300000Y-185149999I0J-249999D01*
G01*
X-76300000Y-185800001D01*
G75*
G02*
X-76549999Y-186050000I-249999J0D01*
G01*
G37*
G36*
G01*
X-76549999Y-188100000D02*
X-77450001Y-188100000D01*
G75*
G02*
X-77700000Y-187850001I0J249999D01*
G01*
X-77700000Y-187199999D01*
G75*
G02*
X-77450001Y-186950000I249999J0D01*
G01*
X-76549999Y-186950000D01*
G75*
G02*
X-76300000Y-187199999I0J-249999D01*
G01*
X-76300000Y-187850001D01*
G75*
G02*
X-76549999Y-188100000I-249999J0D01*
G01*
G37*
%TD*%
%TO.C,D33*%
G36*
G01*
X-108049999Y-151550000D02*
X-108950001Y-151550000D01*
G75*
G02*
X-109200000Y-151300001I0J249999D01*
G01*
X-109200000Y-150649999D01*
G75*
G02*
X-108950001Y-150400000I249999J0D01*
G01*
X-108049999Y-150400000D01*
G75*
G02*
X-107800000Y-150649999I0J-249999D01*
G01*
X-107800000Y-151300001D01*
G75*
G02*
X-108049999Y-151550000I-249999J0D01*
G01*
G37*
G36*
G01*
X-108049999Y-153600000D02*
X-108950001Y-153600000D01*
G75*
G02*
X-109200000Y-153350001I0J249999D01*
G01*
X-109200000Y-152699999D01*
G75*
G02*
X-108950001Y-152450000I249999J0D01*
G01*
X-108049999Y-152450000D01*
G75*
G02*
X-107800000Y-152699999I0J-249999D01*
G01*
X-107800000Y-153350001D01*
G75*
G02*
X-108049999Y-153600000I-249999J0D01*
G01*
G37*
%TD*%
%TO.C,D32*%
G36*
G01*
X-80049999Y-186050000D02*
X-80950001Y-186050000D01*
G75*
G02*
X-81200000Y-185800001I0J249999D01*
G01*
X-81200000Y-185149999D01*
G75*
G02*
X-80950001Y-184900000I249999J0D01*
G01*
X-80049999Y-184900000D01*
G75*
G02*
X-79800000Y-185149999I0J-249999D01*
G01*
X-79800000Y-185800001D01*
G75*
G02*
X-80049999Y-186050000I-249999J0D01*
G01*
G37*
G36*
G01*
X-80049999Y-188100000D02*
X-80950001Y-188100000D01*
G75*
G02*
X-81200000Y-187850001I0J249999D01*
G01*
X-81200000Y-187199999D01*
G75*
G02*
X-80950001Y-186950000I249999J0D01*
G01*
X-80049999Y-186950000D01*
G75*
G02*
X-79800000Y-187199999I0J-249999D01*
G01*
X-79800000Y-187850001D01*
G75*
G02*
X-80049999Y-188100000I-249999J0D01*
G01*
G37*
%TD*%
%TO.C,D31*%
G36*
G01*
X-111549999Y-151550000D02*
X-112450001Y-151550000D01*
G75*
G02*
X-112700000Y-151300001I0J249999D01*
G01*
X-112700000Y-150649999D01*
G75*
G02*
X-112450001Y-150400000I249999J0D01*
G01*
X-111549999Y-150400000D01*
G75*
G02*
X-111300000Y-150649999I0J-249999D01*
G01*
X-111300000Y-151300001D01*
G75*
G02*
X-111549999Y-151550000I-249999J0D01*
G01*
G37*
G36*
G01*
X-111549999Y-153600000D02*
X-112450001Y-153600000D01*
G75*
G02*
X-112700000Y-153350001I0J249999D01*
G01*
X-112700000Y-152699999D01*
G75*
G02*
X-112450001Y-152450000I249999J0D01*
G01*
X-111549999Y-152450000D01*
G75*
G02*
X-111300000Y-152699999I0J-249999D01*
G01*
X-111300000Y-153350001D01*
G75*
G02*
X-111549999Y-153600000I-249999J0D01*
G01*
G37*
%TD*%
%TO.C,D30*%
G36*
G01*
X-83549999Y-186050000D02*
X-84450001Y-186050000D01*
G75*
G02*
X-84700000Y-185800001I0J249999D01*
G01*
X-84700000Y-185149999D01*
G75*
G02*
X-84450001Y-184900000I249999J0D01*
G01*
X-83549999Y-184900000D01*
G75*
G02*
X-83300000Y-185149999I0J-249999D01*
G01*
X-83300000Y-185800001D01*
G75*
G02*
X-83549999Y-186050000I-249999J0D01*
G01*
G37*
G36*
G01*
X-83549999Y-188100000D02*
X-84450001Y-188100000D01*
G75*
G02*
X-84700000Y-187850001I0J249999D01*
G01*
X-84700000Y-187199999D01*
G75*
G02*
X-84450001Y-186950000I249999J0D01*
G01*
X-83549999Y-186950000D01*
G75*
G02*
X-83300000Y-187199999I0J-249999D01*
G01*
X-83300000Y-187850001D01*
G75*
G02*
X-83549999Y-188100000I-249999J0D01*
G01*
G37*
%TD*%
%TO.C,D29*%
G36*
G01*
X-115049999Y-151525000D02*
X-115950001Y-151525000D01*
G75*
G02*
X-116200000Y-151275001I0J249999D01*
G01*
X-116200000Y-150624999D01*
G75*
G02*
X-115950001Y-150375000I249999J0D01*
G01*
X-115049999Y-150375000D01*
G75*
G02*
X-114800000Y-150624999I0J-249999D01*
G01*
X-114800000Y-151275001D01*
G75*
G02*
X-115049999Y-151525000I-249999J0D01*
G01*
G37*
G36*
G01*
X-115049999Y-153575000D02*
X-115950001Y-153575000D01*
G75*
G02*
X-116200000Y-153325001I0J249999D01*
G01*
X-116200000Y-152674999D01*
G75*
G02*
X-115950001Y-152425000I249999J0D01*
G01*
X-115049999Y-152425000D01*
G75*
G02*
X-114800000Y-152674999I0J-249999D01*
G01*
X-114800000Y-153325001D01*
G75*
G02*
X-115049999Y-153575000I-249999J0D01*
G01*
G37*
%TD*%
%TO.C,D28*%
G36*
G01*
X-87049999Y-186050000D02*
X-87950001Y-186050000D01*
G75*
G02*
X-88200000Y-185800001I0J249999D01*
G01*
X-88200000Y-185149999D01*
G75*
G02*
X-87950001Y-184900000I249999J0D01*
G01*
X-87049999Y-184900000D01*
G75*
G02*
X-86800000Y-185149999I0J-249999D01*
G01*
X-86800000Y-185800001D01*
G75*
G02*
X-87049999Y-186050000I-249999J0D01*
G01*
G37*
G36*
G01*
X-87049999Y-188100000D02*
X-87950001Y-188100000D01*
G75*
G02*
X-88200000Y-187850001I0J249999D01*
G01*
X-88200000Y-187199999D01*
G75*
G02*
X-87950001Y-186950000I249999J0D01*
G01*
X-87049999Y-186950000D01*
G75*
G02*
X-86800000Y-187199999I0J-249999D01*
G01*
X-86800000Y-187850001D01*
G75*
G02*
X-87049999Y-188100000I-249999J0D01*
G01*
G37*
%TD*%
%TO.C,D27*%
G36*
G01*
X-90549999Y-186050000D02*
X-91450001Y-186050000D01*
G75*
G02*
X-91700000Y-185800001I0J249999D01*
G01*
X-91700000Y-185149999D01*
G75*
G02*
X-91450001Y-184900000I249999J0D01*
G01*
X-90549999Y-184900000D01*
G75*
G02*
X-90300000Y-185149999I0J-249999D01*
G01*
X-90300000Y-185800001D01*
G75*
G02*
X-90549999Y-186050000I-249999J0D01*
G01*
G37*
G36*
G01*
X-90549999Y-188100000D02*
X-91450001Y-188100000D01*
G75*
G02*
X-91700000Y-187850001I0J249999D01*
G01*
X-91700000Y-187199999D01*
G75*
G02*
X-91450001Y-186950000I249999J0D01*
G01*
X-90549999Y-186950000D01*
G75*
G02*
X-90300000Y-187199999I0J-249999D01*
G01*
X-90300000Y-187850001D01*
G75*
G02*
X-90549999Y-188100000I-249999J0D01*
G01*
G37*
%TD*%
%TO.C,D26*%
G36*
G01*
X-94049999Y-186050000D02*
X-94950001Y-186050000D01*
G75*
G02*
X-95200000Y-185800001I0J249999D01*
G01*
X-95200000Y-185149999D01*
G75*
G02*
X-94950001Y-184900000I249999J0D01*
G01*
X-94049999Y-184900000D01*
G75*
G02*
X-93800000Y-185149999I0J-249999D01*
G01*
X-93800000Y-185800001D01*
G75*
G02*
X-94049999Y-186050000I-249999J0D01*
G01*
G37*
G36*
G01*
X-94049999Y-188100000D02*
X-94950001Y-188100000D01*
G75*
G02*
X-95200000Y-187850001I0J249999D01*
G01*
X-95200000Y-187199999D01*
G75*
G02*
X-94950001Y-186950000I249999J0D01*
G01*
X-94049999Y-186950000D01*
G75*
G02*
X-93800000Y-187199999I0J-249999D01*
G01*
X-93800000Y-187850001D01*
G75*
G02*
X-94049999Y-188100000I-249999J0D01*
G01*
G37*
%TD*%
%TO.C,D25*%
G36*
G01*
X-97549999Y-186050000D02*
X-98450001Y-186050000D01*
G75*
G02*
X-98700000Y-185800001I0J249999D01*
G01*
X-98700000Y-185149999D01*
G75*
G02*
X-98450001Y-184900000I249999J0D01*
G01*
X-97549999Y-184900000D01*
G75*
G02*
X-97300000Y-185149999I0J-249999D01*
G01*
X-97300000Y-185800001D01*
G75*
G02*
X-97549999Y-186050000I-249999J0D01*
G01*
G37*
G36*
G01*
X-97549999Y-188100000D02*
X-98450001Y-188100000D01*
G75*
G02*
X-98700000Y-187850001I0J249999D01*
G01*
X-98700000Y-187199999D01*
G75*
G02*
X-98450001Y-186950000I249999J0D01*
G01*
X-97549999Y-186950000D01*
G75*
G02*
X-97300000Y-187199999I0J-249999D01*
G01*
X-97300000Y-187850001D01*
G75*
G02*
X-97549999Y-188100000I-249999J0D01*
G01*
G37*
%TD*%
%TO.C,D24*%
G36*
G01*
X-101049999Y-186050000D02*
X-101950001Y-186050000D01*
G75*
G02*
X-102200000Y-185800001I0J249999D01*
G01*
X-102200000Y-185149999D01*
G75*
G02*
X-101950001Y-184900000I249999J0D01*
G01*
X-101049999Y-184900000D01*
G75*
G02*
X-100800000Y-185149999I0J-249999D01*
G01*
X-100800000Y-185800001D01*
G75*
G02*
X-101049999Y-186050000I-249999J0D01*
G01*
G37*
G36*
G01*
X-101049999Y-188100000D02*
X-101950001Y-188100000D01*
G75*
G02*
X-102200000Y-187850001I0J249999D01*
G01*
X-102200000Y-187199999D01*
G75*
G02*
X-101950001Y-186950000I249999J0D01*
G01*
X-101049999Y-186950000D01*
G75*
G02*
X-100800000Y-187199999I0J-249999D01*
G01*
X-100800000Y-187850001D01*
G75*
G02*
X-101049999Y-188100000I-249999J0D01*
G01*
G37*
%TD*%
%TO.C,D23*%
G36*
G01*
X-104549999Y-186050000D02*
X-105450001Y-186050000D01*
G75*
G02*
X-105700000Y-185800001I0J249999D01*
G01*
X-105700000Y-185149999D01*
G75*
G02*
X-105450001Y-184900000I249999J0D01*
G01*
X-104549999Y-184900000D01*
G75*
G02*
X-104300000Y-185149999I0J-249999D01*
G01*
X-104300000Y-185800001D01*
G75*
G02*
X-104549999Y-186050000I-249999J0D01*
G01*
G37*
G36*
G01*
X-104549999Y-188100000D02*
X-105450001Y-188100000D01*
G75*
G02*
X-105700000Y-187850001I0J249999D01*
G01*
X-105700000Y-187199999D01*
G75*
G02*
X-105450001Y-186950000I249999J0D01*
G01*
X-104549999Y-186950000D01*
G75*
G02*
X-104300000Y-187199999I0J-249999D01*
G01*
X-104300000Y-187850001D01*
G75*
G02*
X-104549999Y-188100000I-249999J0D01*
G01*
G37*
%TD*%
%TO.C,D22*%
G36*
G01*
X-108049999Y-186050000D02*
X-108950001Y-186050000D01*
G75*
G02*
X-109200000Y-185800001I0J249999D01*
G01*
X-109200000Y-185149999D01*
G75*
G02*
X-108950001Y-184900000I249999J0D01*
G01*
X-108049999Y-184900000D01*
G75*
G02*
X-107800000Y-185149999I0J-249999D01*
G01*
X-107800000Y-185800001D01*
G75*
G02*
X-108049999Y-186050000I-249999J0D01*
G01*
G37*
G36*
G01*
X-108049999Y-188100000D02*
X-108950001Y-188100000D01*
G75*
G02*
X-109200000Y-187850001I0J249999D01*
G01*
X-109200000Y-187199999D01*
G75*
G02*
X-108950001Y-186950000I249999J0D01*
G01*
X-108049999Y-186950000D01*
G75*
G02*
X-107800000Y-187199999I0J-249999D01*
G01*
X-107800000Y-187850001D01*
G75*
G02*
X-108049999Y-188100000I-249999J0D01*
G01*
G37*
%TD*%
%TO.C,D21*%
G36*
G01*
X-111549999Y-186050000D02*
X-112450001Y-186050000D01*
G75*
G02*
X-112700000Y-185800001I0J249999D01*
G01*
X-112700000Y-185149999D01*
G75*
G02*
X-112450001Y-184900000I249999J0D01*
G01*
X-111549999Y-184900000D01*
G75*
G02*
X-111300000Y-185149999I0J-249999D01*
G01*
X-111300000Y-185800001D01*
G75*
G02*
X-111549999Y-186050000I-249999J0D01*
G01*
G37*
G36*
G01*
X-111549999Y-188100000D02*
X-112450001Y-188100000D01*
G75*
G02*
X-112700000Y-187850001I0J249999D01*
G01*
X-112700000Y-187199999D01*
G75*
G02*
X-112450001Y-186950000I249999J0D01*
G01*
X-111549999Y-186950000D01*
G75*
G02*
X-111300000Y-187199999I0J-249999D01*
G01*
X-111300000Y-187850001D01*
G75*
G02*
X-111549999Y-188100000I-249999J0D01*
G01*
G37*
%TD*%
%TO.C,D20*%
G36*
G01*
X-115049999Y-186050000D02*
X-115950001Y-186050000D01*
G75*
G02*
X-116200000Y-185800001I0J249999D01*
G01*
X-116200000Y-185149999D01*
G75*
G02*
X-115950001Y-184900000I249999J0D01*
G01*
X-115049999Y-184900000D01*
G75*
G02*
X-114800000Y-185149999I0J-249999D01*
G01*
X-114800000Y-185800001D01*
G75*
G02*
X-115049999Y-186050000I-249999J0D01*
G01*
G37*
G36*
G01*
X-115049999Y-188100000D02*
X-115950001Y-188100000D01*
G75*
G02*
X-116200000Y-187850001I0J249999D01*
G01*
X-116200000Y-187199999D01*
G75*
G02*
X-115950001Y-186950000I249999J0D01*
G01*
X-115049999Y-186950000D01*
G75*
G02*
X-114800000Y-187199999I0J-249999D01*
G01*
X-114800000Y-187850001D01*
G75*
G02*
X-115049999Y-188100000I-249999J0D01*
G01*
G37*
%TD*%
%TO.C,D19*%
G36*
G01*
X-62549999Y-146050000D02*
X-63450001Y-146050000D01*
G75*
G02*
X-63700000Y-145800001I0J249999D01*
G01*
X-63700000Y-145149999D01*
G75*
G02*
X-63450001Y-144900000I249999J0D01*
G01*
X-62549999Y-144900000D01*
G75*
G02*
X-62300000Y-145149999I0J-249999D01*
G01*
X-62300000Y-145800001D01*
G75*
G02*
X-62549999Y-146050000I-249999J0D01*
G01*
G37*
G36*
G01*
X-62549999Y-148100000D02*
X-63450001Y-148100000D01*
G75*
G02*
X-63700000Y-147850001I0J249999D01*
G01*
X-63700000Y-147199999D01*
G75*
G02*
X-63450001Y-146950000I249999J0D01*
G01*
X-62549999Y-146950000D01*
G75*
G02*
X-62300000Y-147199999I0J-249999D01*
G01*
X-62300000Y-147850001D01*
G75*
G02*
X-62549999Y-148100000I-249999J0D01*
G01*
G37*
%TD*%
%TO.C,D18*%
G36*
G01*
X-66049999Y-146050000D02*
X-66950001Y-146050000D01*
G75*
G02*
X-67200000Y-145800001I0J249999D01*
G01*
X-67200000Y-145149999D01*
G75*
G02*
X-66950001Y-144900000I249999J0D01*
G01*
X-66049999Y-144900000D01*
G75*
G02*
X-65800000Y-145149999I0J-249999D01*
G01*
X-65800000Y-145800001D01*
G75*
G02*
X-66049999Y-146050000I-249999J0D01*
G01*
G37*
G36*
G01*
X-66049999Y-148100000D02*
X-66950001Y-148100000D01*
G75*
G02*
X-67200000Y-147850001I0J249999D01*
G01*
X-67200000Y-147199999D01*
G75*
G02*
X-66950001Y-146950000I249999J0D01*
G01*
X-66049999Y-146950000D01*
G75*
G02*
X-65800000Y-147199999I0J-249999D01*
G01*
X-65800000Y-147850001D01*
G75*
G02*
X-66049999Y-148100000I-249999J0D01*
G01*
G37*
%TD*%
%TO.C,D17*%
G36*
G01*
X-69549999Y-146050000D02*
X-70450001Y-146050000D01*
G75*
G02*
X-70700000Y-145800001I0J249999D01*
G01*
X-70700000Y-145149999D01*
G75*
G02*
X-70450001Y-144900000I249999J0D01*
G01*
X-69549999Y-144900000D01*
G75*
G02*
X-69300000Y-145149999I0J-249999D01*
G01*
X-69300000Y-145800001D01*
G75*
G02*
X-69549999Y-146050000I-249999J0D01*
G01*
G37*
G36*
G01*
X-69549999Y-148100000D02*
X-70450001Y-148100000D01*
G75*
G02*
X-70700000Y-147850001I0J249999D01*
G01*
X-70700000Y-147199999D01*
G75*
G02*
X-70450001Y-146950000I249999J0D01*
G01*
X-69549999Y-146950000D01*
G75*
G02*
X-69300000Y-147199999I0J-249999D01*
G01*
X-69300000Y-147850001D01*
G75*
G02*
X-69549999Y-148100000I-249999J0D01*
G01*
G37*
%TD*%
%TO.C,D16*%
G36*
G01*
X-73049999Y-146050000D02*
X-73950001Y-146050000D01*
G75*
G02*
X-74200000Y-145800001I0J249999D01*
G01*
X-74200000Y-145149999D01*
G75*
G02*
X-73950001Y-144900000I249999J0D01*
G01*
X-73049999Y-144900000D01*
G75*
G02*
X-72800000Y-145149999I0J-249999D01*
G01*
X-72800000Y-145800001D01*
G75*
G02*
X-73049999Y-146050000I-249999J0D01*
G01*
G37*
G36*
G01*
X-73049999Y-148100000D02*
X-73950001Y-148100000D01*
G75*
G02*
X-74200000Y-147850001I0J249999D01*
G01*
X-74200000Y-147199999D01*
G75*
G02*
X-73950001Y-146950000I249999J0D01*
G01*
X-73049999Y-146950000D01*
G75*
G02*
X-72800000Y-147199999I0J-249999D01*
G01*
X-72800000Y-147850001D01*
G75*
G02*
X-73049999Y-148100000I-249999J0D01*
G01*
G37*
%TD*%
%TO.C,D15*%
G36*
G01*
X-76549999Y-146050000D02*
X-77450001Y-146050000D01*
G75*
G02*
X-77700000Y-145800001I0J249999D01*
G01*
X-77700000Y-145149999D01*
G75*
G02*
X-77450001Y-144900000I249999J0D01*
G01*
X-76549999Y-144900000D01*
G75*
G02*
X-76300000Y-145149999I0J-249999D01*
G01*
X-76300000Y-145800001D01*
G75*
G02*
X-76549999Y-146050000I-249999J0D01*
G01*
G37*
G36*
G01*
X-76549999Y-148100000D02*
X-77450001Y-148100000D01*
G75*
G02*
X-77700000Y-147850001I0J249999D01*
G01*
X-77700000Y-147199999D01*
G75*
G02*
X-77450001Y-146950000I249999J0D01*
G01*
X-76549999Y-146950000D01*
G75*
G02*
X-76300000Y-147199999I0J-249999D01*
G01*
X-76300000Y-147850001D01*
G75*
G02*
X-76549999Y-148100000I-249999J0D01*
G01*
G37*
%TD*%
%TO.C,D14*%
G36*
G01*
X-80049999Y-146050000D02*
X-80950001Y-146050000D01*
G75*
G02*
X-81200000Y-145800001I0J249999D01*
G01*
X-81200000Y-145149999D01*
G75*
G02*
X-80950001Y-144900000I249999J0D01*
G01*
X-80049999Y-144900000D01*
G75*
G02*
X-79800000Y-145149999I0J-249999D01*
G01*
X-79800000Y-145800001D01*
G75*
G02*
X-80049999Y-146050000I-249999J0D01*
G01*
G37*
G36*
G01*
X-80049999Y-148100000D02*
X-80950001Y-148100000D01*
G75*
G02*
X-81200000Y-147850001I0J249999D01*
G01*
X-81200000Y-147199999D01*
G75*
G02*
X-80950001Y-146950000I249999J0D01*
G01*
X-80049999Y-146950000D01*
G75*
G02*
X-79800000Y-147199999I0J-249999D01*
G01*
X-79800000Y-147850001D01*
G75*
G02*
X-80049999Y-148100000I-249999J0D01*
G01*
G37*
%TD*%
%TO.C,D13*%
G36*
G01*
X-83549999Y-146050000D02*
X-84450001Y-146050000D01*
G75*
G02*
X-84700000Y-145800001I0J249999D01*
G01*
X-84700000Y-145149999D01*
G75*
G02*
X-84450001Y-144900000I249999J0D01*
G01*
X-83549999Y-144900000D01*
G75*
G02*
X-83300000Y-145149999I0J-249999D01*
G01*
X-83300000Y-145800001D01*
G75*
G02*
X-83549999Y-146050000I-249999J0D01*
G01*
G37*
G36*
G01*
X-83549999Y-148100000D02*
X-84450001Y-148100000D01*
G75*
G02*
X-84700000Y-147850001I0J249999D01*
G01*
X-84700000Y-147199999D01*
G75*
G02*
X-84450001Y-146950000I249999J0D01*
G01*
X-83549999Y-146950000D01*
G75*
G02*
X-83300000Y-147199999I0J-249999D01*
G01*
X-83300000Y-147850001D01*
G75*
G02*
X-83549999Y-148100000I-249999J0D01*
G01*
G37*
%TD*%
%TO.C,D12*%
G36*
G01*
X-87049999Y-146050000D02*
X-87950001Y-146050000D01*
G75*
G02*
X-88200000Y-145800001I0J249999D01*
G01*
X-88200000Y-145149999D01*
G75*
G02*
X-87950001Y-144900000I249999J0D01*
G01*
X-87049999Y-144900000D01*
G75*
G02*
X-86800000Y-145149999I0J-249999D01*
G01*
X-86800000Y-145800001D01*
G75*
G02*
X-87049999Y-146050000I-249999J0D01*
G01*
G37*
G36*
G01*
X-87049999Y-148100000D02*
X-87950001Y-148100000D01*
G75*
G02*
X-88200000Y-147850001I0J249999D01*
G01*
X-88200000Y-147199999D01*
G75*
G02*
X-87950001Y-146950000I249999J0D01*
G01*
X-87049999Y-146950000D01*
G75*
G02*
X-86800000Y-147199999I0J-249999D01*
G01*
X-86800000Y-147850001D01*
G75*
G02*
X-87049999Y-148100000I-249999J0D01*
G01*
G37*
%TD*%
%TO.C,D11*%
G36*
G01*
X-90549999Y-146050000D02*
X-91450001Y-146050000D01*
G75*
G02*
X-91700000Y-145800001I0J249999D01*
G01*
X-91700000Y-145149999D01*
G75*
G02*
X-91450001Y-144900000I249999J0D01*
G01*
X-90549999Y-144900000D01*
G75*
G02*
X-90300000Y-145149999I0J-249999D01*
G01*
X-90300000Y-145800001D01*
G75*
G02*
X-90549999Y-146050000I-249999J0D01*
G01*
G37*
G36*
G01*
X-90549999Y-148100000D02*
X-91450001Y-148100000D01*
G75*
G02*
X-91700000Y-147850001I0J249999D01*
G01*
X-91700000Y-147199999D01*
G75*
G02*
X-91450001Y-146950000I249999J0D01*
G01*
X-90549999Y-146950000D01*
G75*
G02*
X-90300000Y-147199999I0J-249999D01*
G01*
X-90300000Y-147850001D01*
G75*
G02*
X-90549999Y-148100000I-249999J0D01*
G01*
G37*
%TD*%
%TO.C,D10*%
G36*
G01*
X-94049999Y-146050000D02*
X-94950001Y-146050000D01*
G75*
G02*
X-95200000Y-145800001I0J249999D01*
G01*
X-95200000Y-145149999D01*
G75*
G02*
X-94950001Y-144900000I249999J0D01*
G01*
X-94049999Y-144900000D01*
G75*
G02*
X-93800000Y-145149999I0J-249999D01*
G01*
X-93800000Y-145800001D01*
G75*
G02*
X-94049999Y-146050000I-249999J0D01*
G01*
G37*
G36*
G01*
X-94049999Y-148100000D02*
X-94950001Y-148100000D01*
G75*
G02*
X-95200000Y-147850001I0J249999D01*
G01*
X-95200000Y-147199999D01*
G75*
G02*
X-94950001Y-146950000I249999J0D01*
G01*
X-94049999Y-146950000D01*
G75*
G02*
X-93800000Y-147199999I0J-249999D01*
G01*
X-93800000Y-147850001D01*
G75*
G02*
X-94049999Y-148100000I-249999J0D01*
G01*
G37*
%TD*%
%TO.C,D9*%
G36*
G01*
X-97549999Y-146050000D02*
X-98450001Y-146050000D01*
G75*
G02*
X-98700000Y-145800001I0J249999D01*
G01*
X-98700000Y-145149999D01*
G75*
G02*
X-98450001Y-144900000I249999J0D01*
G01*
X-97549999Y-144900000D01*
G75*
G02*
X-97300000Y-145149999I0J-249999D01*
G01*
X-97300000Y-145800001D01*
G75*
G02*
X-97549999Y-146050000I-249999J0D01*
G01*
G37*
G36*
G01*
X-97549999Y-148100000D02*
X-98450001Y-148100000D01*
G75*
G02*
X-98700000Y-147850001I0J249999D01*
G01*
X-98700000Y-147199999D01*
G75*
G02*
X-98450001Y-146950000I249999J0D01*
G01*
X-97549999Y-146950000D01*
G75*
G02*
X-97300000Y-147199999I0J-249999D01*
G01*
X-97300000Y-147850001D01*
G75*
G02*
X-97549999Y-148100000I-249999J0D01*
G01*
G37*
%TD*%
%TO.C,D8*%
G36*
G01*
X-101049999Y-146050000D02*
X-101950001Y-146050000D01*
G75*
G02*
X-102200000Y-145800001I0J249999D01*
G01*
X-102200000Y-145149999D01*
G75*
G02*
X-101950001Y-144900000I249999J0D01*
G01*
X-101049999Y-144900000D01*
G75*
G02*
X-100800000Y-145149999I0J-249999D01*
G01*
X-100800000Y-145800001D01*
G75*
G02*
X-101049999Y-146050000I-249999J0D01*
G01*
G37*
G36*
G01*
X-101049999Y-148100000D02*
X-101950001Y-148100000D01*
G75*
G02*
X-102200000Y-147850001I0J249999D01*
G01*
X-102200000Y-147199999D01*
G75*
G02*
X-101950001Y-146950000I249999J0D01*
G01*
X-101049999Y-146950000D01*
G75*
G02*
X-100800000Y-147199999I0J-249999D01*
G01*
X-100800000Y-147850001D01*
G75*
G02*
X-101049999Y-148100000I-249999J0D01*
G01*
G37*
%TD*%
%TO.C,D7*%
G36*
G01*
X-104549999Y-146050000D02*
X-105450001Y-146050000D01*
G75*
G02*
X-105700000Y-145800001I0J249999D01*
G01*
X-105700000Y-145149999D01*
G75*
G02*
X-105450001Y-144900000I249999J0D01*
G01*
X-104549999Y-144900000D01*
G75*
G02*
X-104300000Y-145149999I0J-249999D01*
G01*
X-104300000Y-145800001D01*
G75*
G02*
X-104549999Y-146050000I-249999J0D01*
G01*
G37*
G36*
G01*
X-104549999Y-148100000D02*
X-105450001Y-148100000D01*
G75*
G02*
X-105700000Y-147850001I0J249999D01*
G01*
X-105700000Y-147199999D01*
G75*
G02*
X-105450001Y-146950000I249999J0D01*
G01*
X-104549999Y-146950000D01*
G75*
G02*
X-104300000Y-147199999I0J-249999D01*
G01*
X-104300000Y-147850001D01*
G75*
G02*
X-104549999Y-148100000I-249999J0D01*
G01*
G37*
%TD*%
%TO.C,D6*%
G36*
G01*
X-108049999Y-146050000D02*
X-108950001Y-146050000D01*
G75*
G02*
X-109200000Y-145800001I0J249999D01*
G01*
X-109200000Y-145149999D01*
G75*
G02*
X-108950001Y-144900000I249999J0D01*
G01*
X-108049999Y-144900000D01*
G75*
G02*
X-107800000Y-145149999I0J-249999D01*
G01*
X-107800000Y-145800001D01*
G75*
G02*
X-108049999Y-146050000I-249999J0D01*
G01*
G37*
G36*
G01*
X-108049999Y-148100000D02*
X-108950001Y-148100000D01*
G75*
G02*
X-109200000Y-147850001I0J249999D01*
G01*
X-109200000Y-147199999D01*
G75*
G02*
X-108950001Y-146950000I249999J0D01*
G01*
X-108049999Y-146950000D01*
G75*
G02*
X-107800000Y-147199999I0J-249999D01*
G01*
X-107800000Y-147850001D01*
G75*
G02*
X-108049999Y-148100000I-249999J0D01*
G01*
G37*
%TD*%
%TO.C,D5*%
G36*
G01*
X-111549999Y-146050000D02*
X-112450001Y-146050000D01*
G75*
G02*
X-112700000Y-145800001I0J249999D01*
G01*
X-112700000Y-145149999D01*
G75*
G02*
X-112450001Y-144900000I249999J0D01*
G01*
X-111549999Y-144900000D01*
G75*
G02*
X-111300000Y-145149999I0J-249999D01*
G01*
X-111300000Y-145800001D01*
G75*
G02*
X-111549999Y-146050000I-249999J0D01*
G01*
G37*
G36*
G01*
X-111549999Y-148100000D02*
X-112450001Y-148100000D01*
G75*
G02*
X-112700000Y-147850001I0J249999D01*
G01*
X-112700000Y-147199999D01*
G75*
G02*
X-112450001Y-146950000I249999J0D01*
G01*
X-111549999Y-146950000D01*
G75*
G02*
X-111300000Y-147199999I0J-249999D01*
G01*
X-111300000Y-147850001D01*
G75*
G02*
X-111549999Y-148100000I-249999J0D01*
G01*
G37*
%TD*%
%TO.C,D4*%
G36*
G01*
X-115049999Y-146050000D02*
X-115950001Y-146050000D01*
G75*
G02*
X-116200000Y-145800001I0J249999D01*
G01*
X-116200000Y-145149999D01*
G75*
G02*
X-115950001Y-144900000I249999J0D01*
G01*
X-115049999Y-144900000D01*
G75*
G02*
X-114800000Y-145149999I0J-249999D01*
G01*
X-114800000Y-145800001D01*
G75*
G02*
X-115049999Y-146050000I-249999J0D01*
G01*
G37*
G36*
G01*
X-115049999Y-148100000D02*
X-115950001Y-148100000D01*
G75*
G02*
X-116200000Y-147850001I0J249999D01*
G01*
X-116200000Y-147199999D01*
G75*
G02*
X-115950001Y-146950000I249999J0D01*
G01*
X-115049999Y-146950000D01*
G75*
G02*
X-114800000Y-147199999I0J-249999D01*
G01*
X-114800000Y-147850001D01*
G75*
G02*
X-115049999Y-148100000I-249999J0D01*
G01*
G37*
%TD*%
%TO.C,C78*%
G36*
G01*
X-114475000Y-81987500D02*
X-113525000Y-81987500D01*
G75*
G02*
X-113275000Y-82237500I0J-250000D01*
G01*
X-113275000Y-82912500D01*
G75*
G02*
X-113525000Y-83162500I-250000J0D01*
G01*
X-114475000Y-83162500D01*
G75*
G02*
X-114725000Y-82912500I0J250000D01*
G01*
X-114725000Y-82237500D01*
G75*
G02*
X-114475000Y-81987500I250000J0D01*
G01*
G37*
G36*
G01*
X-114475000Y-79912500D02*
X-113525000Y-79912500D01*
G75*
G02*
X-113275000Y-80162500I0J-250000D01*
G01*
X-113275000Y-80837500D01*
G75*
G02*
X-113525000Y-81087500I-250000J0D01*
G01*
X-114475000Y-81087500D01*
G75*
G02*
X-114725000Y-80837500I0J250000D01*
G01*
X-114725000Y-80162500D01*
G75*
G02*
X-114475000Y-79912500I250000J0D01*
G01*
G37*
%TD*%
%TO.C,C77*%
G36*
G01*
X-121475000Y-81987500D02*
X-120525000Y-81987500D01*
G75*
G02*
X-120275000Y-82237500I0J-250000D01*
G01*
X-120275000Y-82912500D01*
G75*
G02*
X-120525000Y-83162500I-250000J0D01*
G01*
X-121475000Y-83162500D01*
G75*
G02*
X-121725000Y-82912500I0J250000D01*
G01*
X-121725000Y-82237500D01*
G75*
G02*
X-121475000Y-81987500I250000J0D01*
G01*
G37*
G36*
G01*
X-121475000Y-79912500D02*
X-120525000Y-79912500D01*
G75*
G02*
X-120275000Y-80162500I0J-250000D01*
G01*
X-120275000Y-80837500D01*
G75*
G02*
X-120525000Y-81087500I-250000J0D01*
G01*
X-121475000Y-81087500D01*
G75*
G02*
X-121725000Y-80837500I0J250000D01*
G01*
X-121725000Y-80162500D01*
G75*
G02*
X-121475000Y-79912500I250000J0D01*
G01*
G37*
%TD*%
M02*
