M48
; DRILL file {KiCad (5.1.10)-1} date 03/07/22 13:42:06
; FORMAT={-:-/ absolute / metric / decimal}
; #@! TF.CreationDate,2022-03-07T13:42:06+08:00
; #@! TF.GenerationSoftware,Kicad,Pcbnew,(5.1.10)-1
FMAT,2
METRIC
T1C0.200
T2C0.400
T3C0.800
T4C1.000
T5C1.100
%
G90
G05
T1
X-178.522Y-97.75
X-177.994Y-155.951
X-177.979Y-39.032
X-177.49Y-44.043
X-177.49Y-145.289
X-176.954Y-121.534
X-176.896Y-54.167
X-176.896Y-106.631
X-176.46Y-158.465
X-175.72Y-72.335
X-175.304Y-71.027
X-174.717Y-137.173
X-174.211Y-107.65
X-174.051Y-118.84
X-173.828Y-69.062
X-173.542Y-105.277
X-173.354Y-149.186
X-172.94Y-105.855
X-171.657Y-176.021
X-171.552Y-122.072
X-171.402Y-123.045
X-171.36Y-105.126
X-171.182Y-185.517
X-171.013Y-103.42
X-170.7Y-182.265
X-170.224Y-75.661
X-169.895Y-173.915
X-169.609Y-92.395
X-169.349Y-126.883
X-169.024Y-89.242
X-169.024Y-103.62
X-168.939Y-170.611
X-168.716Y-116.105
X-168.617Y-127.539
X-168.561Y-84.808
X-167.993Y-57.311
X-167.754Y-118.112
X-167.74Y-118.84
X-167.653Y-85.597
X-166.803Y-129.262
X-166.635Y-113.253
X-166.305Y-198.566
X-166.197Y-118.854
X-166.196Y-132.559
X-166.044Y-85.587
X-165.885Y-115.619
X-165.751Y-47.78
X-165.751Y-59.469
X-165.751Y-65.147
X-165.709Y-121.366
X-165.38Y-97.75
X-164.026Y-162.027
X-164.021Y-179.5
X-164.019Y-190.0
X-164.019Y-196.536
X-164.019Y-168.785
X-164.018Y-176.0
X-164.018Y-165.931
X-164.018Y-183.0
X-164.013Y-148.138
X-164.012Y-151.132
X-164.01Y-144.5
X-164.008Y-158.5
X-164.004Y-193.721
X-164.004Y-186.5
X-164.004Y-172.5
X-164.003Y-155.0
X-163.934Y-64.729
X-163.916Y-118.748
X-163.675Y-59.657
X-163.562Y-102.885
X-163.562Y-115.345
X-163.354Y-86.17
X-162.843Y-89.157
X-162.84Y-97.735
X-162.623Y-81.309
X-162.431Y-86.625
X-162.166Y-160.715
X-161.668Y-156.375
X-161.658Y-177.073
X-161.577Y-153.78
X-161.308Y-83.454
X-161.135Y-132.559
X-160.343Y-156.375
X-160.316Y-163.973
X-159.394Y-145.397
X-159.047Y-153.451
X-158.238Y-75.04
X-157.76Y-96.424
X-157.694Y-81.266
X-156.88Y-81.019
X-156.73Y-61.034
X-156.73Y-61.781
X-156.554Y-87.272
X-156.542Y-114.211
X-156.349Y-170.333
X-156.278Y-79.239
X-156.009Y-128.75
X-155.673Y-115.223
X-155.083Y-15.211
X-154.733Y-162.215
X-154.51Y-68.666
X-154.249Y-153.835
X-154.145Y-91.66
X-154.029Y-88.277
X-153.927Y-78.161
X-153.645Y-15.971
X-153.606Y-137.869
X-153.452Y-77.574
X-153.409Y-41.264
X-153.187Y-102.94
X-153.154Y-14.915
X-152.852Y-158.525
X-152.652Y-132.559
X-152.502Y-78.463
X-152.401Y-74.961
X-152.24Y-166.986
X-152.068Y-76.312
X-152.05Y-61.781
X-151.756Y-11.48
X-151.726Y-92.412
X-151.603Y-137.939
X-151.563Y-56.006
X-151.462Y-96.424
X-151.462Y-99.782
X-151.331Y-159.022
X-151.228Y-180.946
X-151.176Y-55.328
X-151.085Y-117.802
X-150.938Y-92.867
X-150.776Y-35.521
X-150.355Y-86.015
X-150.352Y-138.969
X-150.015Y-117.007
X-149.955Y-46.51
X-149.891Y-104.03
X-149.827Y-126.985
X-149.724Y-10.211
X-148.78Y-146.087
X-148.71Y-73.0
X-148.591Y-142.168
X-148.349Y-55.328
X-148.185Y-197.917
X-147.893Y-186.099
X-147.81Y-106.495
X-147.804Y-142.894
X-147.705Y-98.787
X-147.404Y-33.81
X-147.034Y-144.106
X-146.297Y-98.749
X-146.277Y-45.291
X-146.17Y-75.82
X-146.056Y-92.448
X-145.837Y-166.499
X-145.753Y-84.314
X-145.576Y-169.366
X-145.534Y-138.32
X-145.245Y-178.795
X-145.237Y-31.447
X-145.106Y-146.311
X-145.089Y-40.51
X-144.927Y-53.462
X-144.641Y-67.613
X-144.324Y-79.051
X-144.277Y-95.722
X-143.817Y-55.492
X-143.684Y-131.055
X-142.695Y-153.031
X-142.67Y-188.76
X-142.638Y-132.344
X-142.4Y-113.253
X-142.239Y-147.241
X-142.202Y-164.459
X-142.202Y-174.384
X-142.103Y-196.362
X-142.043Y-73.0
X-141.851Y-176.232
X-141.8Y-143.595
X-141.484Y-95.722
X-141.393Y-128.134
X-141.376Y-194.473
X-140.808Y-112.375
X-140.786Y-76.702
X-140.65Y-109.741
X-140.618Y-80.71
X-140.598Y-134.91
X-140.44Y-110.725
X-140.433Y-128.443
X-140.301Y-118.978
X-140.182Y-133.007
X-140.101Y-75.82
X-139.976Y-81.352
X-139.813Y-117.007
X-139.755Y-70.131
X-139.546Y-109.093
X-139.484Y-85.557
X-139.417Y-83.398
X-139.312Y-181.817
X-139.214Y-118.116
X-139.171Y-145.98
X-139.154Y-36.35
X-139.112Y-116.142
X-138.926Y-118.91
X-138.802Y-139.13
X-138.746Y-60.096
X-138.55Y-76.194
X-138.386Y-126.682
X-138.239Y-102.984
X-138.047Y-184.587
X-137.908Y-132.839
X-137.775Y-123.147
X-137.772Y-62.557
X-137.686Y-162.962
X-137.518Y-107.883
X-137.518Y-114.203
X-137.516Y-138.257
X-137.301Y-139.218
X-137.3Y-23.941
X-136.667Y-69.143
X-136.619Y-148.584
X-136.494Y-72.582
X-136.214Y-55.835
X-135.978Y-80.19
X-135.837Y-119.702
X-135.778Y-138.197
X-135.747Y-99.147
X-135.355Y-138.778
X-135.203Y-122.29
X-134.86Y-115.968
X-134.76Y-12.068
X-134.446Y-115.23
X-134.231Y-14.337
X-133.309Y-126.566
X-133.156Y-119.362
X-133.126Y-112.304
X-133.071Y-116.121
X-132.936Y-68.595
X-132.452Y-69.631
X-132.395Y-153.63
X-132.395Y-86.465
X-132.384Y-118.544
X-132.376Y-156.912
X-132.294Y-122.799
X-131.987Y-113.6
X-131.605Y-115.565
X-131.418Y-36.193
X-131.241Y-139.097
X-131.166Y-57.144
X-131.161Y-94.949
X-131.089Y-123.448
X-130.952Y-96.064
X-130.81Y-38.586
X-130.694Y-103.14
X-130.671Y-124.57
X-130.387Y-113.037
X-130.219Y-99.843
X-130.08Y-108.343
X-130.041Y-129.624
X-130.038Y-125.945
X-129.362Y-43.775
X-129.32Y-111.493
X-129.155Y-79.975
X-129.154Y-92.324
X-128.603Y-149.481
X-128.567Y-99.658
X-128.452Y-148.181
X-128.385Y-136.748
X-128.343Y-133.443
X-128.213Y-91.459
X-128.077Y-100.837
X-128.035Y-137.897
X-127.916Y-38.786
X-127.58Y-96.704
X-127.387Y-60.975
X-127.229Y-84.22
X-126.881Y-130.07
X-126.731Y-78.577
X-126.5Y-38.827
X-126.457Y-61.078
X-126.383Y-77.031
X-126.265Y-141.613
X-126.257Y-90.731
X-126.257Y-102.98
X-126.061Y-24.014
X-126.033Y-76.245
X-125.922Y-15.258
X-125.866Y-103.761
X-125.696Y-142.18
X-125.646Y-149.244
X-125.48Y-23.457
X-125.345Y-80.348
X-125.282Y-134.786
X-125.26Y-90.977
X-125.171Y-140.237
X-125.046Y-142.917
X-124.869Y-81.727
X-124.857Y-100.163
X-124.789Y-108.661
X-124.532Y-113.999
X-124.484Y-71.058
X-124.456Y-136.748
X-124.364Y-101.16
X-124.314Y-107.933
X-124.228Y-90.828
X-124.204Y-72.219
X-124.051Y-140.768
X-123.87Y-55.745
X-123.864Y-26.88
X-123.714Y-71.054
X-123.602Y-141.344
X-123.394Y-38.814
X-123.27Y-58.802
X-123.263Y-84.906
X-123.034Y-22.973
X-122.788Y-49.245
X-122.61Y-126.568
X-122.169Y-135.647
X-121.853Y-85.191
X-121.659Y-9.844
X-121.253Y-88.591
X-121.068Y-136.057
X-120.77Y-91.73
X-120.318Y-127.311
X-120.283Y-149.19
X-120.186Y-86.462
X-120.128Y-81.372
X-119.133Y-158.652
X-118.781Y-82.959
X-118.692Y-104.764
X-118.43Y-115.39
X-118.388Y-159.475
X-117.901Y-158.035
X-117.524Y-56.662
X-117.111Y-54.227
X-117.079Y-144.509
X-116.603Y-152.91
X-116.583Y-54.78
X-115.5Y-148.509
X-115.5Y-188.524
X-114.381Y-97.836
X-114.375Y-92.171
X-113.309Y-86.578
X-113.235Y-113.45
X-113.121Y-147.476
X-113.108Y-152.677
X-112.937Y-97.448
X-112.858Y-79.975
X-112.788Y-110.804
X-112.314Y-114.163
X-112.08Y-114.89
X-111.532Y-102.691
X-110.882Y-187.903
X-110.716Y-36.672
X-110.653Y-112.35
X-109.323Y-89.582
X-109.195Y-58.812
X-108.888Y-148.514
X-108.652Y-154.018
X-108.533Y-125.951
X-108.204Y-22.973
X-107.823Y-86.762
X-107.413Y-188.135
X-107.359Y-85.914
X-106.673Y-85.055
X-106.304Y-60.849
X-106.113Y-152.97
X-106.108Y-147.525
X-106.105Y-187.457
X-106.013Y-120.493
X-106.013Y-123.529
X-105.619Y-86.169
X-104.969Y-160.775
X-104.843Y-130.671
X-104.146Y-130.866
X-104.02Y-156.594
X-102.957Y-128.904
X-102.858Y-162.174
X-102.653Y-133.213
X-102.481Y-117.206
X-101.5Y-148.512
X-101.482Y-154.008
X-101.3Y-178.292
X-101.272Y-188.503
X-100.867Y-123.385
X-100.625Y-89.625
X-100.392Y-131.559
X-99.38Y-124.785
X-99.1Y-84.961
X-99.032Y-95.903
X-98.917Y-88.975
X-98.352Y-101.16
X-98.152Y-92.769
X-98.0Y-148.511
X-98.0Y-154.009
X-97.917Y-84.014
X-97.852Y-85.126
X-97.852Y-87.349
X-97.676Y-94.322
X-97.439Y-188.505
X-97.087Y-77.748
X-96.823Y-85.612
X-96.354Y-84.088
X-95.876Y-83.514
X-95.615Y-147.332
X-95.615Y-153.055
X-95.287Y-108.051
X-94.868Y-188.524
X-94.627Y-33.268
X-94.575Y-83.522
X-93.262Y-83.816
X-92.912Y-27.109
X-92.763Y-152.019
X-92.449Y-115.316
X-92.286Y-141.303
X-91.334Y-154.003
X-91.131Y-188.509
X-91.088Y-148.512
X-91.036Y-19.182
X-90.694Y-59.156
X-90.656Y-170.163
X-90.382Y-107.55
X-89.87Y-158.317
X-89.786Y-100.364
X-89.695Y-108.647
X-89.661Y-186.045
X-89.557Y-172.345
X-89.392Y-118.69
X-89.186Y-184.098
X-89.028Y-98.62
X-88.941Y-176.003
X-88.636Y-153.025
X-88.632Y-89.963
X-88.438Y-172.575
X-88.138Y-103.095
X-88.041Y-142.817
X-87.565Y-141.319
X-87.5Y-188.507
X-87.434Y-71.018
X-87.155Y-148.507
X-87.127Y-106.29
X-87.074Y-121.368
X-86.906Y-80.871
X-86.871Y-99.745
X-86.584Y-131.323
X-86.569Y-103.095
X-86.519Y-40.748
X-86.396Y-184.844
X-86.249Y-82.889
X-86.05Y-146.063
X-86.046Y-83.715
X-85.832Y-164.967
X-85.551Y-58.58
X-85.437Y-121.343
X-85.123Y-95.456
X-85.118Y-153.25
X-85.0Y-96.75
X-84.861Y-119.944
X-84.665Y-83.49
X-84.611Y-110.395
X-84.556Y-123.738
X-84.555Y-60.507
X-84.524Y-58.393
X-84.25Y-89.75
X-84.231Y-44.545
X-84.048Y-60.023
X-84.048Y-83.103
X-84.007Y-112.257
X-84.007Y-113.635
X-83.991Y-57.395
X-83.929Y-122.306
X-83.929Y-126.211
X-83.677Y-156.674
X-83.558Y-98.765
X-83.32Y-127.031
X-83.31Y-99.926
X-83.22Y-97.825
X-83.172Y-41.106
X-83.124Y-130.848
X-82.89Y-147.476
X-82.872Y-187.525
X-82.402Y-150.659
X-82.359Y-185.136
X-82.345Y-89.355
X-81.75Y-99.0
X-81.694Y-150.649
X-81.621Y-147.403
X-81.459Y-146.264
X-81.199Y-83.482
X-80.915Y-154.019
X-80.819Y-138.54
X-80.5Y-188.512
X-80.203Y-141.856
X-80.005Y-139.263
X-79.855Y-143.21
X-79.852Y-131.227
X-79.805Y-89.191
X-79.797Y-167.892
X-79.764Y-115.314
X-79.719Y-129.835
X-78.895Y-142.047
X-78.893Y-131.77
X-78.763Y-135.349
X-78.759Y-129.1
X-78.568Y-148.981
X-78.418Y-118.956
X-78.199Y-157.034
X-77.569Y-134.415
X-77.258Y-115.438
X-77.189Y-154.018
X-77.0Y-148.506
X-76.783Y-156.674
X-76.783Y-121.115
X-76.64Y-83.615
X-76.619Y-141.93
X-76.0Y-104.75
X-75.896Y-187.567
X-75.739Y-109.45
X-74.983Y-152.762
X-74.516Y-84.372
X-74.18Y-109.52
X-73.871Y-149.682
X-73.617Y-70.264
X-73.572Y-159.547
X-73.5Y-154.013
X-73.441Y-112.283
X-73.314Y-188.506
X-72.887Y-101.45
X-72.839Y-110.828
X-72.814Y-121.966
X-72.67Y-105.036
X-72.4Y-155.147
X-72.11Y-154.458
X-71.73Y-109.688
X-71.73Y-137.966
X-70.955Y-156.336
X-70.707Y-51.543
X-70.64Y-130.741
X-70.295Y-121.945
X-70.0Y-148.502
X-70.0Y-154.002
X-69.992Y-79.567
X-69.879Y-124.334
X-69.879Y-135.825
X-69.398Y-122.324
X-69.143Y-82.367
X-68.922Y-142.424
X-68.876Y-187.525
X-68.323Y-146.624
X-68.164Y-154.794
X-67.693Y-152.298
X-67.619Y-152.998
X-67.606Y-169.065
X-67.575Y-131.01
X-66.912Y-84.186
X-66.667Y-133.963
X-66.507Y-129.978
X-66.5Y-148.503
X-66.5Y-188.507
X-65.758Y-155.431
X-65.531Y-26.5
X-65.53Y-43.971
X-65.526Y-29.771
X-65.522Y-23.464
X-65.52Y-51.213
X-65.518Y-69.05
X-65.518Y-57.588
X-65.516Y-19.793
X-65.515Y-64.812
X-65.512Y-47.5
X-65.511Y-15.968
X-65.51Y-37.327
X-65.507Y-54.5
X-65.507Y-33.5
X-65.505Y-61.5
X-65.502Y-40.467
X-65.346Y-22.092
X-65.138Y-128.223
X-64.96Y-164.206
X-64.86Y-125.038
X-64.721Y-150.536
X-64.349Y-127.738
X-63.976Y-189.675
X-63.8Y-151.955
X-63.516Y-64.256
X-63.399Y-148.506
X-63.357Y-99.475
X-63.191Y-62.692
X-63.161Y-59.523
X-63.099Y-75.542
X-62.751Y-77.259
X-62.483Y-82.362
X-62.23Y-148.804
X-62.215Y-139.243
X-62.149Y-21.5
X-62.078Y-131.618
X-61.891Y-187.672
X-61.888Y-152.57
X-61.844Y-62.912
X-61.844Y-59.496
X-61.833Y-66.865
X-61.656Y-144.224
X-61.656Y-145.994
X-61.179Y-167.5
X-61.169Y-142.208
X-60.305Y-137.966
X-60.18Y-152.028
X-59.941Y-125.192
X-59.674Y-153.217
X-59.621Y-167.98
X-59.471Y-142.38
X-59.465Y-124.059
X-59.146Y-163.673
X-59.083Y-180.376
X-59.015Y-138.768
X-58.969Y-143.473
X-58.32Y-178.516
X-57.907Y-162.444
X-57.522Y-110.298
X-57.436Y-19.901
X-57.174Y-34.266
X-56.806Y-34.94
X-56.246Y-123.638
X-56.234Y-156.453
X-55.978Y-83.376
X-55.904Y-40.088
X-55.884Y-134.173
X-55.55Y-12.923
X-55.274Y-41.62
X-55.226Y-13.919
X-55.007Y-87.635
X-54.858Y-15.678
X-54.606Y-130.886
X-54.39Y-129.575
X-54.371Y-142.166
X-54.145Y-77.989
X-53.998Y-35.968
X-53.736Y-72.538
X-53.379Y-116.0
X-52.973Y-143.974
X-52.813Y-17.044
X-52.205Y-49.355
X-51.246Y-70.13
X-51.115Y-42.106
X-51.11Y-186.5
X-50.055Y-36.456
X-49.934Y-136.221
X-49.805Y-98.999
X-49.525Y-2.728
X-49.344Y-152.022
X-49.175Y-70.619
X-49.003Y-17.019
X-48.789Y-1.303
X-48.749Y-12.025
X-48.049Y-73.03
X-48.014Y-11.1
X-47.952Y-94.878
X-47.658Y-66.73
X-47.658Y-71.32
X-45.803Y-15.976
X-44.925Y-26.684
X-44.436Y-166.768
X-44.374Y-102.195
X-44.233Y-47.282
X-44.155Y-172.586
X-43.945Y-18.974
X-43.46Y-24.135
X-43.389Y-167.045
X-43.204Y-71.815
X-43.186Y-32.201
X-42.657Y-44.262
X-42.034Y-34.284
X-41.99Y-87.15
X-41.873Y-72.54
X-41.381Y-168.941
X-41.102Y-70.625
X-40.936Y-51.014
X-40.187Y-101.865
X-39.917Y-48.98
X-39.817Y-12.953
X-39.806Y-55.014
X-39.576Y-59.499
X-38.87Y-143.974
X-37.529Y-176.36
X-37.305Y-12.957
X-37.289Y-85.165
X-37.25Y-66.516
X-37.215Y-148.338
X-37.106Y-18.352
X-37.105Y-125.762
X-36.945Y-166.803
X-36.498Y-22.097
X-35.64Y-99.475
X-35.146Y-31.129
X-34.669Y-27.76
X-34.48Y-173.061
X-33.964Y-19.437
X-33.552Y-151.372
X-33.388Y-171.876
X-33.259Y-166.965
X-32.023Y-142.166
X-30.806Y-71.81
X-30.761Y-19.974
X-30.68Y-169.0
X-30.595Y-172.406
X-29.49Y-71.32
X-29.254Y-149.489
X-29.191Y-141.321
X-27.151Y-127.983
X-26.944Y-85.889
X-26.617Y-72.776
X-26.593Y-130.05
X-26.195Y-6.552
X-26.006Y-13.021
X-24.532Y-13.027
X-24.53Y-125.482
X-24.25Y-146.0
X-23.537Y-129.409
X-23.232Y-56.008
X-22.75Y-146.0
X-22.407Y-61.222
X-21.127Y-57.31
X-20.638Y-68.21
X-19.545Y-1.311
X-19.545Y-130.737
T2
X-90.7Y-70.885
X-57.288Y-17.729
X-47.25Y-12.962
X-25.679Y-147.679
T3
X-175.0Y-144.75
X-175.0Y-147.29
X-175.0Y-149.83
X-175.0Y-152.37
X-175.0Y-154.91
X-175.0Y-157.45
X-175.0Y-159.99
X-175.0Y-162.53
X-175.0Y-165.07
X-175.0Y-167.61
X-175.0Y-172.25
X-175.0Y-174.79
X-175.0Y-177.33
X-175.0Y-179.87
X-175.0Y-182.41
X-175.0Y-184.95
X-175.0Y-187.49
X-175.0Y-190.03
X-175.0Y-192.57
X-175.0Y-195.11
X-173.75Y-70.38
X-173.75Y-78.0
X-173.0Y-93.88
X-173.0Y-101.5
X-172.5Y-17.88
X-172.5Y-25.5
X-171.5Y-30.0
X-171.5Y-32.54
X-171.5Y-35.08
X-171.5Y-37.62
X-171.5Y-40.16
X-171.5Y-42.7
X-171.5Y-45.24
X-171.5Y-47.78
X-171.5Y-50.32
X-171.5Y-52.86
X-171.21Y-70.38
X-171.21Y-78.0
X-170.46Y-93.88
X-170.46Y-101.5
X-169.96Y-17.88
X-169.96Y-25.5
X-169.83Y-105.26
X-169.83Y-120.5
X-169.83Y-125.26
X-169.83Y-140.5
X-168.67Y-70.38
X-168.67Y-78.0
X-167.92Y-93.88
X-167.92Y-101.5
X-167.42Y-17.88
X-167.42Y-25.5
X-167.38Y-144.75
X-167.38Y-147.29
X-167.38Y-149.83
X-167.38Y-152.37
X-167.38Y-154.91
X-167.38Y-157.45
X-167.38Y-159.99
X-167.38Y-162.53
X-167.38Y-165.07
X-167.38Y-167.61
X-167.38Y-172.25
X-167.38Y-174.79
X-167.38Y-177.33
X-167.38Y-179.87
X-167.38Y-182.41
X-167.38Y-184.95
X-167.38Y-187.49
X-167.38Y-190.03
X-167.38Y-192.57
X-167.38Y-195.11
X-167.29Y-105.26
X-167.29Y-120.5
X-167.29Y-125.26
X-167.29Y-140.5
X-166.13Y-70.38
X-166.13Y-78.0
X-165.38Y-93.88
X-165.38Y-101.5
X-164.88Y-17.88
X-164.88Y-25.5
X-164.75Y-58.75
X-164.75Y-66.37
X-164.75Y-105.26
X-164.75Y-120.5
X-164.75Y-125.26
X-164.75Y-140.5
X-164.5Y-82.38
X-164.5Y-90.0
X-163.88Y-30.0
X-163.88Y-32.54
X-163.88Y-35.08
X-163.88Y-37.62
X-163.88Y-40.16
X-163.88Y-42.7
X-163.88Y-45.24
X-163.88Y-47.78
X-163.88Y-50.32
X-163.88Y-52.86
X-163.59Y-70.38
X-163.59Y-78.0
X-163.5Y-5.88
X-163.5Y-13.5
X-162.84Y-93.88
X-162.84Y-101.5
X-162.34Y-17.88
X-162.34Y-25.5
X-162.21Y-58.75
X-162.21Y-66.37
X-162.21Y-105.26
X-162.21Y-120.5
X-162.21Y-125.26
X-162.21Y-140.5
X-161.96Y-82.38
X-161.96Y-90.0
X-161.05Y-70.38
X-161.05Y-78.0
X-160.96Y-5.88
X-160.96Y-13.5
X-160.3Y-93.88
X-160.3Y-101.5
X-159.8Y-17.88
X-159.8Y-25.5
X-159.67Y-58.75
X-159.67Y-66.37
X-159.67Y-105.26
X-159.67Y-120.5
X-159.67Y-125.26
X-159.67Y-140.5
X-159.42Y-82.38
X-159.42Y-90.0
X-158.51Y-70.38
X-158.51Y-78.0
X-158.42Y-5.88
X-158.42Y-13.5
X-157.76Y-93.88
X-157.76Y-101.5
X-157.26Y-17.88
X-157.26Y-25.5
X-157.13Y-58.75
X-157.13Y-66.37
X-157.13Y-105.26
X-157.13Y-120.5
X-157.13Y-125.26
X-157.13Y-140.5
X-156.88Y-82.38
X-156.88Y-90.0
X-156.85Y-144.75
X-156.85Y-147.29
X-156.85Y-149.83
X-156.85Y-152.37
X-156.85Y-154.91
X-156.85Y-157.45
X-156.85Y-159.99
X-156.85Y-162.53
X-156.85Y-165.07
X-156.85Y-167.61
X-156.75Y-172.25
X-156.75Y-174.79
X-156.75Y-177.33
X-156.75Y-179.87
X-156.75Y-182.41
X-156.75Y-184.95
X-156.75Y-187.49
X-156.75Y-190.03
X-156.75Y-192.57
X-156.75Y-195.11
X-156.5Y-30.0
X-156.5Y-32.54
X-156.5Y-35.08
X-156.5Y-37.62
X-156.5Y-40.16
X-156.5Y-42.7
X-156.5Y-45.24
X-156.5Y-47.78
X-156.5Y-50.32
X-156.5Y-52.86
X-155.97Y-70.38
X-155.97Y-78.0
X-155.88Y-5.88
X-155.88Y-13.5
X-155.22Y-93.88
X-155.22Y-101.5
X-154.72Y-17.88
X-154.72Y-25.5
X-154.59Y-58.75
X-154.59Y-66.37
X-154.59Y-105.26
X-154.59Y-120.5
X-154.59Y-125.26
X-154.59Y-140.5
X-154.34Y-82.38
X-154.34Y-90.0
X-153.34Y-5.88
X-153.34Y-13.5
X-152.05Y-58.75
X-152.05Y-66.37
X-152.05Y-105.26
X-152.05Y-120.5
X-152.05Y-125.26
X-152.05Y-140.5
X-151.8Y-82.38
X-151.8Y-90.0
X-151.25Y-70.38
X-151.25Y-78.0
X-150.8Y-5.88
X-150.8Y-13.5
X-150.25Y-93.88
X-150.25Y-101.5
X-150.0Y-17.88
X-150.0Y-25.5
X-149.51Y-58.75
X-149.51Y-66.37
X-149.51Y-105.26
X-149.51Y-120.5
X-149.51Y-125.26
X-149.51Y-140.5
X-149.26Y-82.38
X-149.26Y-90.0
X-149.23Y-144.75
X-149.23Y-147.29
X-149.23Y-149.83
X-149.23Y-152.37
X-149.23Y-154.91
X-149.23Y-157.45
X-149.23Y-159.99
X-149.23Y-162.53
X-149.23Y-165.07
X-149.23Y-167.61
X-149.13Y-172.25
X-149.13Y-174.79
X-149.13Y-177.33
X-149.13Y-179.87
X-149.13Y-182.41
X-149.13Y-184.95
X-149.13Y-187.49
X-149.13Y-190.03
X-149.13Y-192.57
X-149.13Y-195.11
X-148.88Y-30.0
X-148.88Y-32.54
X-148.88Y-35.08
X-148.88Y-37.62
X-148.88Y-40.16
X-148.88Y-42.7
X-148.88Y-45.24
X-148.88Y-47.78
X-148.88Y-50.32
X-148.88Y-52.86
X-148.71Y-70.38
X-148.71Y-78.0
X-148.26Y-5.88
X-148.26Y-13.5
X-147.71Y-93.88
X-147.71Y-101.5
X-147.46Y-17.88
X-147.46Y-25.5
X-146.97Y-58.75
X-146.97Y-66.37
X-146.97Y-105.26
X-146.97Y-120.5
X-146.97Y-125.26
X-146.97Y-140.5
X-146.72Y-82.38
X-146.72Y-90.0
X-146.17Y-70.38
X-146.17Y-78.0
X-145.72Y-5.88
X-145.72Y-13.5
X-145.17Y-93.88
X-145.17Y-101.5
X-144.92Y-17.88
X-144.92Y-25.5
X-144.43Y-58.75
X-144.43Y-66.37
X-144.43Y-105.26
X-144.43Y-120.5
X-144.43Y-125.26
X-144.43Y-140.5
X-144.18Y-82.38
X-144.18Y-90.0
X-143.75Y-144.75
X-143.75Y-147.29
X-143.75Y-149.83
X-143.75Y-152.37
X-143.75Y-154.91
X-143.75Y-157.45
X-143.75Y-159.99
X-143.75Y-162.53
X-143.75Y-165.07
X-143.75Y-167.61
X-143.75Y-172.25
X-143.75Y-174.79
X-143.75Y-177.33
X-143.75Y-179.87
X-143.75Y-182.41
X-143.75Y-184.95
X-143.75Y-187.49
X-143.75Y-190.03
X-143.75Y-192.57
X-143.75Y-195.11
X-143.63Y-70.38
X-143.63Y-78.0
X-143.18Y-5.88
X-143.18Y-13.5
X-142.63Y-93.88
X-142.63Y-101.5
X-142.38Y-17.88
X-142.38Y-25.5
X-141.89Y-58.75
X-141.89Y-66.37
X-141.89Y-105.26
X-141.89Y-120.5
X-141.89Y-125.26
X-141.89Y-140.5
X-141.64Y-82.38
X-141.64Y-90.0
X-141.5Y-30.0
X-141.5Y-32.54
X-141.5Y-35.08
X-141.5Y-37.62
X-141.5Y-40.16
X-141.5Y-42.7
X-141.5Y-45.24
X-141.5Y-47.78
X-141.5Y-50.32
X-141.5Y-52.86
X-141.09Y-70.38
X-141.09Y-78.0
X-140.64Y-5.88
X-140.64Y-13.5
X-140.09Y-93.88
X-140.09Y-101.5
X-139.84Y-17.88
X-139.84Y-25.5
X-139.35Y-105.26
X-139.35Y-120.5
X-139.35Y-125.26
X-139.35Y-140.5
X-138.55Y-70.38
X-138.55Y-78.0
X-137.55Y-93.88
X-137.55Y-101.5
X-137.3Y-17.88
X-137.3Y-25.5
X-136.81Y-105.26
X-136.81Y-120.5
X-136.81Y-125.26
X-136.81Y-140.5
X-136.13Y-144.75
X-136.13Y-147.29
X-136.13Y-149.83
X-136.13Y-152.37
X-136.13Y-154.91
X-136.13Y-157.45
X-136.13Y-159.99
X-136.13Y-162.53
X-136.13Y-165.07
X-136.13Y-167.61
X-136.13Y-172.25
X-136.13Y-174.79
X-136.13Y-177.33
X-136.13Y-179.87
X-136.13Y-182.41
X-136.13Y-184.95
X-136.13Y-187.49
X-136.13Y-190.03
X-136.13Y-192.57
X-136.13Y-195.11
X-136.01Y-70.38
X-136.01Y-78.0
X-135.01Y-93.88
X-135.01Y-101.5
X-134.76Y-17.88
X-134.76Y-25.5
X-134.27Y-105.26
X-134.27Y-120.5
X-134.27Y-125.26
X-134.27Y-140.5
X-133.88Y-30.0
X-133.88Y-32.54
X-133.88Y-35.08
X-133.88Y-37.62
X-133.88Y-40.16
X-133.88Y-42.7
X-133.88Y-45.24
X-133.88Y-47.78
X-133.88Y-50.32
X-133.88Y-52.86
X-133.47Y-70.38
X-133.47Y-78.0
X-132.47Y-93.88
X-132.47Y-101.5
X-132.22Y-17.88
X-132.22Y-25.5
X-131.73Y-105.26
X-131.73Y-120.5
X-131.73Y-125.26
X-131.73Y-140.5
X-130.25Y-144.75
X-130.25Y-147.29
X-130.25Y-149.83
X-130.25Y-152.37
X-130.25Y-154.91
X-130.25Y-157.45
X-130.25Y-159.99
X-130.25Y-162.53
X-130.25Y-165.07
X-130.25Y-167.61
X-130.0Y-172.25
X-130.0Y-174.79
X-130.0Y-177.33
X-130.0Y-179.87
X-130.0Y-182.41
X-130.0Y-184.95
X-130.0Y-187.49
X-130.0Y-190.03
X-130.0Y-192.57
X-130.0Y-195.11
X-127.5Y-17.88
X-127.5Y-25.5
X-126.5Y-30.0
X-126.5Y-32.54
X-126.5Y-35.08
X-126.5Y-37.62
X-126.5Y-40.16
X-126.5Y-42.7
X-126.5Y-45.24
X-126.5Y-47.78
X-126.5Y-50.32
X-126.5Y-52.86
X-124.96Y-17.88
X-124.96Y-25.5
X-122.63Y-144.75
X-122.63Y-147.29
X-122.63Y-149.83
X-122.63Y-152.37
X-122.63Y-154.91
X-122.63Y-157.45
X-122.63Y-159.99
X-122.63Y-162.53
X-122.63Y-165.07
X-122.63Y-167.61
X-122.42Y-17.88
X-122.42Y-25.5
X-122.38Y-172.25
X-122.38Y-174.79
X-122.38Y-177.33
X-122.38Y-179.87
X-122.38Y-182.41
X-122.38Y-184.95
X-122.38Y-187.49
X-122.38Y-190.03
X-122.38Y-192.57
X-122.38Y-195.11
X-122.24Y-93.54
X-122.24Y-96.08
X-122.24Y-98.62
X-122.24Y-101.16
X-122.24Y-103.7
X-122.24Y-106.24
X-122.24Y-108.78
X-122.24Y-111.32
X-122.24Y-113.86
X-122.24Y-116.4
X-122.24Y-118.94
X-119.88Y-17.88
X-119.88Y-25.5
X-119.7Y-91.0
X-119.7Y-93.54
X-119.7Y-96.08
X-119.7Y-98.62
X-119.7Y-101.16
X-119.7Y-103.7
X-119.7Y-106.24
X-119.7Y-108.78
X-119.7Y-111.32
X-119.7Y-113.86
X-119.7Y-116.4
X-119.7Y-118.94
X-119.7Y-121.48
X-119.5Y-76.0
X-119.0Y-5.88
X-119.0Y-13.5
X-118.88Y-30.0
X-118.88Y-32.54
X-118.88Y-35.08
X-118.88Y-37.62
X-118.88Y-40.16
X-118.88Y-42.7
X-118.88Y-45.24
X-118.88Y-47.78
X-118.88Y-50.32
X-118.88Y-52.86
X-117.34Y-17.88
X-117.34Y-25.5
X-117.16Y-91.0
X-117.16Y-93.54
X-117.16Y-118.94
X-117.16Y-121.48
X-116.46Y-5.88
X-116.46Y-13.5
X-114.8Y-17.88
X-114.8Y-25.5
X-114.62Y-76.0
X-114.62Y-91.0
X-114.62Y-93.54
X-114.62Y-118.94
X-114.62Y-121.48
X-114.0Y-163.88
X-114.0Y-171.5
X-114.0Y-174.88
X-114.0Y-182.5
X-113.92Y-5.88
X-113.92Y-13.5
X-112.72Y-61.5
X-112.72Y-64.04
X-112.72Y-66.58
X-112.72Y-69.12
X-112.26Y-17.88
X-112.26Y-25.5
X-112.08Y-91.0
X-112.08Y-93.54
X-112.08Y-118.94
X-112.08Y-121.48
X-111.5Y-30.0
X-111.5Y-32.54
X-111.5Y-35.08
X-111.5Y-37.62
X-111.5Y-40.16
X-111.5Y-42.7
X-111.5Y-45.24
X-111.5Y-47.78
X-111.5Y-50.32
X-111.5Y-52.86
X-111.46Y-163.88
X-111.46Y-171.5
X-111.46Y-174.88
X-111.46Y-182.5
X-111.38Y-5.88
X-111.38Y-13.5
X-109.72Y-17.88
X-109.72Y-25.5
X-109.54Y-91.0
X-109.54Y-93.54
X-109.54Y-118.94
X-109.54Y-121.48
X-108.92Y-163.88
X-108.92Y-171.5
X-108.92Y-174.88
X-108.92Y-182.5
X-108.84Y-5.88
X-108.84Y-13.5
X-107.0Y-91.0
X-107.0Y-93.54
X-107.0Y-118.94
X-107.0Y-121.48
X-106.38Y-163.88
X-106.38Y-171.5
X-106.38Y-174.88
X-106.38Y-182.5
X-106.3Y-5.88
X-106.3Y-13.5
X-105.1Y-61.5
X-105.1Y-64.04
X-105.1Y-66.58
X-105.1Y-69.12
X-105.0Y-17.88
X-105.0Y-25.5
X-104.46Y-91.0
X-104.46Y-93.54
X-104.46Y-118.94
X-104.46Y-121.48
X-104.0Y-73.88
X-104.0Y-81.5
X-103.88Y-30.0
X-103.88Y-32.54
X-103.88Y-35.08
X-103.88Y-37.62
X-103.88Y-40.16
X-103.88Y-42.7
X-103.88Y-45.24
X-103.88Y-47.78
X-103.88Y-50.32
X-103.88Y-52.86
X-103.84Y-163.88
X-103.84Y-171.5
X-103.84Y-174.88
X-103.84Y-182.5
X-103.76Y-5.88
X-103.76Y-13.5
X-102.46Y-17.88
X-102.46Y-25.5
X-101.92Y-91.0
X-101.92Y-93.54
X-101.92Y-118.94
X-101.92Y-121.48
X-101.46Y-73.88
X-101.46Y-81.5
X-101.3Y-163.88
X-101.3Y-171.5
X-101.3Y-174.88
X-101.3Y-182.5
X-101.22Y-5.88
X-101.22Y-13.5
X-99.92Y-17.88
X-99.92Y-25.5
X-99.38Y-91.0
X-99.38Y-93.54
X-99.38Y-118.94
X-99.38Y-121.48
X-98.92Y-73.88
X-98.92Y-81.5
X-98.76Y-163.88
X-98.76Y-171.5
X-98.76Y-174.88
X-98.76Y-182.5
X-98.68Y-5.88
X-98.68Y-13.5
X-97.38Y-17.88
X-97.38Y-25.5
X-96.84Y-91.0
X-96.84Y-93.54
X-96.84Y-118.94
X-96.84Y-121.48
X-96.38Y-73.88
X-96.38Y-81.5
X-96.22Y-163.88
X-96.22Y-171.5
X-96.22Y-174.88
X-96.22Y-182.5
X-96.14Y-5.88
X-96.14Y-13.5
X-96.0Y-30.0
X-96.0Y-32.54
X-96.0Y-35.08
X-96.0Y-37.62
X-96.0Y-40.16
X-96.0Y-42.7
X-96.0Y-45.24
X-96.0Y-47.78
X-96.0Y-50.32
X-96.0Y-52.86
X-94.84Y-17.88
X-94.84Y-25.5
X-94.3Y-91.0
X-94.3Y-93.54
X-94.3Y-96.08
X-94.3Y-98.62
X-94.3Y-101.16
X-94.3Y-103.7
X-94.3Y-106.24
X-94.3Y-108.78
X-94.3Y-111.32
X-94.3Y-113.86
X-94.3Y-116.4
X-94.3Y-118.94
X-94.3Y-121.48
X-93.84Y-73.88
X-93.84Y-81.5
X-93.68Y-163.88
X-93.68Y-171.5
X-93.68Y-174.88
X-93.68Y-182.5
X-92.3Y-17.88
X-92.3Y-25.5
X-91.76Y-93.54
X-91.76Y-96.08
X-91.76Y-98.62
X-91.76Y-101.16
X-91.76Y-103.7
X-91.76Y-106.24
X-91.76Y-108.78
X-91.76Y-111.32
X-91.76Y-113.86
X-91.76Y-116.4
X-91.76Y-118.94
X-91.3Y-73.88
X-91.3Y-81.5
X-91.14Y-163.88
X-91.14Y-171.5
X-91.14Y-174.88
X-91.14Y-182.5
X-89.76Y-17.88
X-89.76Y-25.5
X-89.0Y-61.5
X-89.0Y-64.04
X-89.0Y-66.58
X-89.0Y-69.12
X-88.76Y-73.88
X-88.76Y-81.5
X-88.38Y-30.0
X-88.38Y-32.54
X-88.38Y-35.08
X-88.38Y-37.62
X-88.38Y-40.16
X-88.38Y-42.7
X-88.38Y-45.24
X-88.38Y-47.78
X-88.38Y-50.32
X-88.38Y-52.86
X-87.22Y-17.88
X-87.22Y-25.5
X-86.5Y-163.88
X-86.5Y-171.5
X-86.5Y-174.88
X-86.5Y-182.5
X-83.96Y-163.88
X-83.96Y-171.5
X-83.96Y-174.88
X-83.96Y-182.5
X-81.8Y-103.1
X-81.8Y-105.64
X-81.8Y-108.18
X-81.8Y-110.72
X-81.8Y-113.26
X-81.8Y-115.8
X-81.8Y-118.34
X-81.8Y-120.88
X-81.8Y-123.42
X-81.8Y-125.96
X-81.42Y-163.88
X-81.42Y-171.5
X-81.42Y-174.88
X-81.42Y-182.5
X-81.38Y-61.5
X-81.38Y-64.04
X-81.38Y-66.58
X-81.38Y-69.12
X-81.27Y-89.98
X-81.27Y-97.6
X-80.8Y-132.88
X-80.8Y-140.5
X-78.88Y-163.88
X-78.88Y-171.5
X-78.88Y-174.88
X-78.88Y-182.5
X-78.73Y-89.98
X-78.73Y-97.6
X-78.26Y-132.88
X-78.26Y-140.5
X-76.34Y-163.88
X-76.34Y-171.5
X-76.34Y-174.88
X-76.34Y-182.5
X-76.19Y-89.98
X-76.19Y-97.6
X-75.72Y-132.88
X-75.72Y-140.5
X-75.25Y-17.6
X-75.25Y-20.14
X-75.25Y-22.68
X-75.25Y-25.22
X-75.25Y-27.76
X-75.25Y-30.3
X-75.25Y-32.84
X-75.25Y-35.38
X-75.25Y-37.92
X-75.25Y-40.46
X-75.25Y-45.35
X-75.25Y-47.89
X-75.25Y-50.43
X-75.25Y-52.97
X-75.25Y-55.51
X-75.25Y-58.05
X-75.25Y-60.59
X-75.25Y-63.13
X-75.25Y-65.67
X-75.25Y-68.21
X-74.18Y-103.1
X-74.18Y-105.64
X-74.18Y-108.18
X-74.18Y-110.72
X-74.18Y-113.26
X-74.18Y-115.8
X-74.18Y-118.34
X-74.18Y-120.88
X-74.18Y-123.42
X-74.18Y-125.96
X-73.8Y-163.88
X-73.8Y-171.5
X-73.8Y-174.88
X-73.8Y-182.5
X-73.65Y-89.98
X-73.65Y-97.6
X-73.5Y-3.48
X-73.5Y-11.1
X-73.5Y-73.73
X-73.5Y-81.35
X-73.18Y-132.88
X-73.18Y-140.5
X-71.26Y-163.88
X-71.26Y-171.5
X-71.26Y-174.88
X-71.26Y-182.5
X-71.11Y-89.98
X-71.11Y-97.6
X-70.96Y-3.48
X-70.96Y-11.1
X-70.96Y-73.73
X-70.96Y-81.35
X-70.64Y-132.88
X-70.64Y-140.5
X-68.72Y-163.88
X-68.72Y-171.5
X-68.72Y-174.88
X-68.72Y-182.5
X-68.57Y-89.98
X-68.57Y-97.6
X-68.42Y-3.48
X-68.42Y-11.1
X-68.42Y-73.73
X-68.42Y-81.35
X-68.1Y-132.88
X-68.1Y-140.5
X-67.63Y-17.6
X-67.63Y-20.14
X-67.63Y-22.68
X-67.63Y-25.22
X-67.63Y-27.76
X-67.63Y-30.3
X-67.63Y-32.84
X-67.63Y-35.38
X-67.63Y-37.92
X-67.63Y-40.46
X-67.63Y-45.35
X-67.63Y-47.89
X-67.63Y-50.43
X-67.63Y-52.97
X-67.63Y-55.51
X-67.63Y-58.05
X-67.63Y-60.59
X-67.63Y-63.13
X-67.63Y-65.67
X-67.63Y-68.21
X-66.18Y-163.88
X-66.18Y-171.5
X-66.18Y-174.88
X-66.18Y-182.5
X-66.03Y-89.98
X-66.03Y-97.6
X-65.88Y-3.48
X-65.88Y-11.1
X-65.88Y-73.73
X-65.88Y-81.35
X-65.56Y-132.88
X-65.56Y-140.5
X-63.64Y-163.88
X-63.64Y-171.5
X-63.64Y-174.88
X-63.64Y-182.5
X-63.49Y-89.98
X-63.49Y-97.6
X-63.34Y-3.48
X-63.34Y-11.1
X-63.34Y-73.73
X-63.34Y-81.35
X-63.02Y-132.88
X-63.02Y-140.5
X-60.8Y-3.48
X-60.8Y-11.1
X-60.8Y-73.73
X-60.8Y-81.35
X-60.48Y-132.88
X-60.48Y-140.5
X-58.75Y-17.6
X-58.75Y-20.14
X-58.75Y-22.68
X-58.75Y-25.22
X-58.75Y-27.76
X-58.75Y-30.3
X-58.75Y-32.84
X-58.75Y-35.38
X-58.75Y-37.92
X-58.75Y-40.46
X-58.75Y-45.35
X-58.75Y-47.89
X-58.75Y-50.43
X-58.75Y-52.97
X-58.75Y-55.51
X-58.75Y-58.05
X-58.75Y-60.59
X-58.75Y-63.13
X-58.75Y-65.67
X-58.75Y-68.21
X-58.5Y-89.76
X-58.5Y-105.0
X-58.5Y-111.26
X-58.5Y-126.5
X-58.26Y-3.48
X-58.26Y-11.1
X-58.26Y-73.73
X-58.26Y-81.35
X-57.94Y-132.88
X-57.94Y-140.5
X-55.96Y-89.76
X-55.96Y-105.0
X-55.96Y-111.26
X-55.96Y-126.5
X-55.72Y-3.48
X-55.72Y-11.1
X-55.72Y-73.73
X-55.72Y-81.35
X-53.42Y-89.76
X-53.42Y-105.0
X-53.42Y-111.26
X-53.42Y-126.5
X-53.18Y-3.48
X-53.18Y-11.1
X-53.18Y-73.73
X-53.18Y-81.35
X-51.13Y-17.6
X-51.13Y-20.14
X-51.13Y-22.68
X-51.13Y-25.22
X-51.13Y-27.76
X-51.13Y-30.3
X-51.13Y-32.84
X-51.13Y-35.38
X-51.13Y-37.92
X-51.13Y-40.46
X-51.13Y-45.35
X-51.13Y-47.89
X-51.13Y-50.43
X-51.13Y-52.97
X-51.13Y-55.51
X-51.13Y-58.05
X-51.13Y-60.59
X-51.13Y-63.13
X-51.13Y-65.67
X-51.13Y-68.21
X-51.0Y-145.5
X-51.0Y-153.12
X-50.88Y-89.76
X-50.88Y-105.0
X-50.88Y-111.26
X-50.88Y-126.5
X-50.64Y-3.48
X-50.64Y-11.1
X-50.64Y-73.73
X-50.64Y-81.35
X-48.6Y-132.88
X-48.6Y-140.5
X-48.46Y-145.5
X-48.46Y-153.12
X-48.34Y-89.76
X-48.34Y-105.0
X-48.34Y-111.26
X-48.34Y-126.5
X-46.06Y-132.88
X-46.06Y-140.5
X-46.0Y-3.48
X-46.0Y-11.1
X-46.0Y-17.6
X-46.0Y-20.14
X-46.0Y-22.68
X-46.0Y-25.22
X-46.0Y-27.76
X-46.0Y-30.3
X-46.0Y-32.84
X-46.0Y-35.38
X-46.0Y-37.92
X-46.0Y-40.46
X-46.0Y-45.35
X-46.0Y-47.89
X-46.0Y-50.43
X-46.0Y-52.97
X-46.0Y-55.51
X-46.0Y-58.05
X-46.0Y-60.59
X-46.0Y-63.13
X-46.0Y-65.67
X-46.0Y-68.21
X-46.0Y-73.73
X-46.0Y-81.35
X-45.92Y-145.5
X-45.92Y-153.12
X-45.8Y-89.76
X-45.8Y-105.0
X-45.8Y-111.26
X-45.8Y-126.5
X-43.52Y-132.88
X-43.52Y-140.5
X-43.46Y-3.48
X-43.46Y-11.1
X-43.46Y-73.73
X-43.46Y-81.35
X-43.38Y-145.5
X-43.38Y-153.12
X-43.26Y-89.76
X-43.26Y-105.0
X-43.26Y-111.26
X-43.26Y-126.5
X-40.98Y-132.88
X-40.98Y-140.5
X-40.92Y-3.48
X-40.92Y-11.1
X-40.92Y-73.73
X-40.92Y-81.35
X-40.84Y-145.5
X-40.84Y-153.12
X-40.72Y-89.76
X-40.72Y-105.0
X-40.72Y-111.26
X-40.72Y-126.5
X-38.44Y-132.88
X-38.44Y-140.5
X-38.38Y-3.48
X-38.38Y-11.1
X-38.38Y-17.6
X-38.38Y-20.14
X-38.38Y-22.68
X-38.38Y-25.22
X-38.38Y-27.76
X-38.38Y-30.3
X-38.38Y-32.84
X-38.38Y-35.38
X-38.38Y-37.92
X-38.38Y-40.46
X-38.38Y-45.35
X-38.38Y-47.89
X-38.38Y-50.43
X-38.38Y-52.97
X-38.38Y-55.51
X-38.38Y-58.05
X-38.38Y-60.59
X-38.38Y-63.13
X-38.38Y-65.67
X-38.38Y-68.21
X-38.38Y-73.73
X-38.38Y-81.35
X-38.3Y-145.5
X-38.3Y-153.12
X-38.18Y-89.76
X-38.18Y-105.0
X-38.18Y-111.26
X-38.18Y-126.5
X-35.9Y-132.88
X-35.9Y-140.5
X-35.84Y-3.48
X-35.84Y-11.1
X-35.84Y-73.73
X-35.84Y-81.35
X-35.76Y-145.5
X-35.76Y-153.12
X-35.64Y-89.76
X-35.64Y-105.0
X-35.64Y-111.26
X-35.64Y-126.5
X-33.36Y-132.88
X-33.36Y-140.5
X-33.3Y-3.48
X-33.3Y-11.1
X-33.3Y-73.73
X-33.3Y-81.35
X-33.22Y-145.5
X-33.22Y-153.12
X-33.1Y-89.76
X-33.1Y-105.0
X-33.1Y-111.26
X-33.1Y-126.5
X-32.5Y-17.6
X-32.5Y-20.14
X-32.5Y-22.68
X-32.5Y-25.22
X-32.5Y-27.76
X-32.5Y-30.3
X-32.5Y-32.84
X-32.5Y-35.38
X-32.5Y-37.92
X-32.5Y-40.46
X-32.5Y-45.35
X-32.5Y-47.89
X-32.5Y-50.43
X-32.5Y-52.97
X-32.5Y-55.51
X-32.5Y-58.05
X-32.5Y-60.59
X-32.5Y-63.13
X-32.5Y-65.67
X-32.5Y-68.21
X-31.3Y-186.8
X-31.3Y-193.6
X-30.82Y-132.88
X-30.82Y-140.5
X-30.76Y-3.48
X-30.76Y-11.1
X-30.76Y-73.73
X-30.76Y-81.35
X-30.68Y-145.5
X-30.68Y-153.12
X-30.56Y-89.76
X-30.56Y-105.0
X-30.56Y-111.26
X-30.56Y-126.5
X-28.5Y-186.8
X-28.5Y-188.9
X-28.5Y-191.5
X-28.5Y-193.6
X-28.28Y-132.88
X-28.28Y-140.5
X-28.22Y-3.48
X-28.22Y-11.1
X-28.22Y-73.73
X-28.22Y-81.35
X-28.14Y-145.5
X-28.14Y-153.12
X-28.02Y-89.76
X-28.02Y-105.0
X-28.02Y-111.26
X-28.02Y-126.5
X-25.74Y-132.88
X-25.74Y-140.5
X-25.68Y-3.48
X-25.68Y-11.1
X-25.68Y-73.73
X-25.68Y-81.35
X-25.48Y-89.76
X-25.48Y-105.0
X-25.48Y-111.26
X-25.48Y-126.5
X-24.88Y-17.6
X-24.88Y-20.14
X-24.88Y-22.68
X-24.88Y-25.22
X-24.88Y-27.76
X-24.88Y-30.3
X-24.88Y-32.84
X-24.88Y-35.38
X-24.88Y-37.92
X-24.88Y-40.46
X-24.88Y-45.35
X-24.88Y-47.89
X-24.88Y-50.43
X-24.88Y-52.97
X-24.88Y-55.51
X-24.88Y-58.05
X-24.88Y-60.59
X-24.88Y-63.13
X-24.88Y-65.67
X-24.88Y-68.21
X-23.14Y-3.48
X-23.14Y-11.1
X-23.14Y-73.73
X-23.14Y-81.35
T4
X-114.0Y-159.0
X-111.46Y-159.0
X-110.0Y-191.5
X-110.0Y-196.0
X-108.92Y-159.0
X-107.46Y-191.5
X-107.46Y-196.0
X-106.38Y-159.0
X-104.92Y-191.5
X-104.92Y-196.0
X-103.84Y-159.0
X-102.38Y-191.5
X-102.38Y-196.0
X-101.3Y-159.0
X-99.84Y-191.5
X-99.84Y-196.0
X-98.76Y-159.0
X-97.3Y-191.5
X-97.3Y-196.0
X-96.22Y-159.0
X-94.76Y-191.5
X-94.76Y-196.0
X-93.68Y-159.0
X-92.22Y-191.5
X-92.22Y-196.0
X-91.14Y-159.0
X-89.68Y-191.5
X-89.68Y-196.0
X-88.6Y-159.0
X-87.14Y-191.5
X-87.14Y-196.0
X-86.06Y-159.0
X-84.6Y-191.5
X-84.6Y-196.0
X-83.52Y-159.0
X-82.06Y-191.5
X-82.06Y-196.0
X-80.98Y-159.0
X-79.52Y-191.5
X-79.52Y-196.0
X-78.44Y-159.0
X-76.98Y-191.5
X-76.98Y-196.0
X-75.9Y-159.0
X-74.44Y-191.5
X-74.44Y-196.0
X-71.9Y-191.5
X-71.9Y-196.0
X-67.5Y-159.0
X-64.96Y-159.0
X-64.5Y-195.5
X-62.42Y-159.0
X-61.96Y-195.5
X-59.88Y-159.0
X-59.42Y-195.5
X-57.34Y-159.0
X-56.88Y-195.5
X-54.8Y-159.0
X-52.26Y-159.0
X-49.72Y-159.0
X-47.5Y-195.5
X-47.18Y-159.0
X-44.96Y-195.5
X-44.64Y-159.0
X-42.42Y-195.5
X-42.1Y-159.0
X-39.88Y-195.5
X-39.56Y-159.0
X-37.02Y-159.0
X-34.48Y-159.0
X-31.94Y-159.0
X-29.4Y-159.0
X-24.75Y-167.25
X-24.75Y-169.79
X-24.75Y-172.33
X-24.75Y-174.87
X-24.75Y-177.41
X-22.5Y-149.0
X-22.5Y-151.54
X-22.5Y-154.08
X-22.5Y-156.62
X-22.5Y-159.16
X-22.21Y-167.25
X-22.21Y-169.79
X-22.21Y-172.33
X-22.21Y-174.87
X-22.21Y-177.41
T5
X-124.17Y-63.0
X-124.17Y-67.5
X-117.67Y-63.0
X-117.67Y-67.5
X-100.5Y-63.0
X-100.5Y-67.5
X-94.0Y-63.0
X-94.0Y-67.5
T4
X-26.4Y-183.35G85X-24.9Y-183.35
G05
X-26.4Y-197.05G85X-24.9Y-197.05
G05
X-24.85Y-191.2G85X-24.85Y-189.2
G05
T0
M30
